<svg width="47" height="32" viewBox="0 0 47 32" fill="none" xmlns="http://www.w3.org/2000/svg">
<rect x="0.666667" y="0.666667" width="45.3333" height="30.6667" rx="4.66667" fill="white" stroke="#D9D9D9" stroke-width="1.33333"/>
<path fill-rule="evenodd" clip-rule="evenodd" d="M11.1276 11.9103C11.7543 11.9632 12.3811 11.5931 12.7728 11.1239C13.1579 10.6415 13.4125 9.99385 13.3473 9.33301C12.7923 9.35944 12.1069 9.70308 11.7152 10.1855C11.3561 10.6018 11.0493 11.2759 11.1276 11.9103ZM18.583 20.4219V10.1194H22.4021C24.3737 10.1194 25.7511 11.494 25.7511 13.5029C25.7511 15.5119 24.3475 16.8996 22.3499 16.8996H20.1629V20.4219H18.583ZM13.3407 12.0359C12.7886 12.0037 12.2848 12.2039 11.8778 12.3657C11.616 12.4698 11.3942 12.5579 11.2255 12.5579C11.0362 12.5579 10.8053 12.4651 10.546 12.3608C10.2063 12.2242 9.81791 12.068 9.41062 12.0755C8.47707 12.0887 7.6088 12.624 7.13223 13.4765C6.15298 15.1815 6.87762 17.7059 7.82423 19.0936C8.28774 19.7809 8.84265 20.5343 9.57383 20.5078C9.8955 20.4955 10.1269 20.3961 10.3664 20.2933L10.3664 20.2933C10.6421 20.1749 10.9285 20.0518 11.3757 20.0518C11.8073 20.0518 12.0812 20.1717 12.3441 20.2867C12.5941 20.396 12.8342 20.501 13.1905 20.4946C13.9478 20.4814 14.4244 19.8073 14.8879 19.1201C15.3881 18.3824 15.6079 17.6625 15.6413 17.5533L15.6452 17.5407C15.6444 17.5398 15.6382 17.537 15.6273 17.5319L15.6273 17.5319C15.4601 17.4544 14.182 16.8622 14.1698 15.274C14.1575 13.9409 15.1835 13.2655 15.345 13.1592C15.3548 13.1527 15.3615 13.1483 15.3645 13.1461C14.7116 12.168 13.6932 12.0623 13.3407 12.0359ZM28.6367 20.5012C29.629 20.5012 30.5495 19.9923 30.9673 19.1861H31V20.4219H32.4623V15.2937C32.4623 13.8069 31.2872 12.8486 29.4789 12.8486C27.8011 12.8486 26.5607 13.8201 26.515 15.155H27.9382C28.0557 14.5206 28.6367 14.1042 29.4332 14.1042C30.3994 14.1042 30.9412 14.5602 30.9412 15.3995V15.9678L28.9697 16.0868C27.1352 16.1991 26.1429 16.9591 26.1429 18.2807C26.1429 19.6156 27.1678 20.5012 28.6367 20.5012ZM29.061 19.2787C28.2188 19.2787 27.6835 18.8689 27.6835 18.2411C27.6835 17.5935 28.1992 17.2168 29.185 17.1574L30.9411 17.045V17.6266C30.9411 18.5914 30.1316 19.2787 29.061 19.2787ZM37.3129 20.825C36.6796 22.6291 35.955 23.2238 34.4143 23.2238C34.2968 23.2238 33.9051 23.2106 33.8137 23.1842V21.9484C33.9116 21.9616 34.1531 21.9749 34.2772 21.9749C34.9757 21.9749 35.3674 21.6775 35.609 20.9043L35.7526 20.4483L33.076 12.9478H34.7276L36.5882 19.0341H36.6208L38.4814 12.9478H40.0874L37.3129 20.825ZM20.1627 11.4675H21.9841C23.3551 11.4675 24.1385 12.2076 24.1385 13.5095C24.1385 14.8114 23.3551 15.5581 21.9776 15.5581H20.1627V11.4675Z" fill="black"/>
</svg>
