<svg width="47" height="32" viewBox="0 0 47 32" fill="none" xmlns="http://www.w3.org/2000/svg">
<rect x="0.666667" y="0.666667" width="45.3333" height="30.6667" rx="4.66667" fill="white" stroke="#D9D9D9" stroke-width="1.33333"/>
<path fill-rule="evenodd" clip-rule="evenodd" d="M36.6621 19.0924H36.6855L38.6318 14.2076H39.999L35.7949 24.0006H34.4971L36.0605 20.5748L33.3018 14.2076H34.6689L36.6621 19.0924ZM30.082 13.9859C31.0116 13.986 31.746 14.2397 32.2852 14.7389C32.8244 15.2384 33.0908 15.9369 33.0908 16.817V21.0113H31.8867V20.068H31.832C31.3084 20.8448 30.6203 21.233 29.7529 21.233C29.0185 21.2329 28.3936 21.0109 27.9014 20.567C27.4168 20.1547 27.1426 19.5442 27.1582 18.9019C27.1582 18.1963 27.4246 17.6415 27.9482 17.2213C28.4719 16.8011 29.1755 16.5943 30.0508 16.5943C30.8009 16.5944 31.4101 16.7379 31.8945 17.0074V16.7135C31.8945 16.2774 31.7071 15.8651 31.3789 15.5797C31.0429 15.2785 30.6133 15.112 30.168 15.1119C29.4646 15.1119 28.9093 15.4136 28.5029 16.0162L27.3936 15.3102C27.9875 14.4302 28.8864 13.9859 30.082 13.9859ZM24.1182 11.068C24.9231 11.0521 25.7049 11.3614 26.2754 11.9322C27.4164 13.0105 27.4867 14.8262 26.416 15.9918L26.2754 16.1344C25.6892 16.6973 24.97 16.983 24.1182 16.983H22.0391V21.0113H20.7812V11.068H24.1182ZM30.2461 17.6256C29.7381 17.6256 29.3078 17.7519 28.9639 17.9977C28.6279 18.2434 28.4562 18.5529 28.4561 18.9254C28.4561 19.2583 28.6123 19.5681 28.8701 19.7584C29.1515 19.9804 29.4959 20.0993 29.8477 20.0914C30.3792 20.0914 30.8875 19.8772 31.2627 19.4967C31.6768 19.1003 31.8877 18.6324 31.8877 18.0934C31.4969 17.7762 30.9496 17.6177 30.2461 17.6256ZM22.04 15.7623H24.1504C24.6192 15.7781 25.0722 15.5875 25.3926 15.2467C26.0492 14.5569 26.0336 13.4469 25.3535 12.7809C25.0331 12.4639 24.6036 12.2897 24.1504 12.2896H22.04V15.7623Z" fill="#3C4043"/>
<path d="M17.6954 16.1108C17.6954 15.7222 17.6641 15.3337 17.6016 14.9531H12.2949V17.1495H15.3351C15.2101 17.8551 14.8037 18.4895 14.2097 18.8859V20.3131H16.0229C17.0858 19.322 17.6954 17.8551 17.6954 16.1108Z" fill="#4285F4"/>
<path d="M12.2948 21.6928C13.811 21.6928 15.0928 21.1854 16.0228 20.3132L14.2096 18.8859C13.7016 19.2348 13.0529 19.433 12.2948 19.433C10.8255 19.433 9.58289 18.4261 9.13741 17.0781H7.26953V18.5529C8.22301 20.4797 10.169 21.6928 12.2948 21.6928Z" fill="#34A853"/>
<path d="M9.13803 17.0781C8.90353 16.3724 8.90353 15.6033 9.13803 14.8897V13.4229H7.26985C6.46474 15.0324 6.46474 16.9354 7.26985 18.545L9.13803 17.0781Z" fill="#FBBC04"/>
<path d="M12.2948 12.5345C13.0998 12.5187 13.8736 12.8279 14.4519 13.3909L16.0619 11.7575C15.038 10.7901 13.6938 10.2589 12.2948 10.2748C10.169 10.2748 8.22301 11.4958 7.26953 13.4226L9.13741 14.8974C9.58289 13.5415 10.8255 12.5345 12.2948 12.5345Z" fill="#EA4335"/>
</svg>
