<svg width="47" height="32" viewBox="0 0 47 32" fill="none" xmlns="http://www.w3.org/2000/svg">
<rect x="0.666667" y="0.666667" width="45.3333" height="30.6667" rx="4.66667" fill="white" stroke="#D9D9D9" stroke-width="1.33333"/>
<path d="M23.7881 6.60742C31.3341 6.60742 34.2344 10.7317 34.2344 15.9443C34.2342 22.1795 30.1807 25.3135 23.7881 25.3135H12.6836V6.60742H23.7881ZM13.7383 24.2578H23.7881C29.8511 24.2578 33.1463 21.4208 33.1465 15.9775C33.1465 10.369 29.5877 7.72949 23.7881 7.72949H13.7383V24.2578ZM18.3184 22.8721H15.0889V17.1318H18.3184V22.8721ZM16.7031 12.249C17.8133 12.249 18.7139 13.1503 18.7139 14.2617C18.7137 15.3731 17.8132 16.2744 16.7031 16.2744C15.5934 16.2741 14.6935 15.3729 14.6934 14.2617C14.6934 13.1505 15.5933 12.2494 16.7031 12.249Z" fill="black"/>
<path fill-rule="evenodd" clip-rule="evenodd" d="M29.4897 12.4137H30.4124V15.185H31.7634C31.401 10.1373 27.4138 9.01562 23.789 9.01562H19.9336V12.4137H20.4938C21.5483 12.4137 22.1743 13.1066 22.1743 14.2613C22.1743 15.416 21.5483 16.1088 20.5267 16.1088H19.9336V22.872H23.789C29.6875 22.872 31.6975 20.1337 31.7964 16.1088H29.4897V12.4137ZM25.0412 15.185V16.1088H22.7345V12.4137H24.9753V13.3375H23.6572V13.7664H24.9094V14.6902H23.6901V15.185H25.0412ZM25.4365 16.1088L26.5569 12.4137H27.875L28.9954 16.1088H28.0397L27.842 15.416H26.6228L26.4251 16.1088H25.4365ZM26.8968 14.4592H26.8865V14.4921L26.8968 14.4592ZM26.8968 14.4592H27.5455L27.2489 13.4364H27.216L26.8968 14.4592ZM19.9336 15.185V13.3375H20.4938C20.8563 13.3375 21.2517 13.4364 21.2517 14.2612C21.2517 15.086 20.8892 15.185 20.4938 15.185H19.9336Z" fill="#D50072"/>
</svg>
