<svg width="47" height="32" viewBox="0 0 47 32" fill="none" xmlns="http://www.w3.org/2000/svg">
<rect x="0.666667" y="0.666667" width="45.3333" height="30.6667" rx="4.66667" fill="white" stroke="#D9D9D9" stroke-width="1.33333"/>
<path d="M29.5674 6.66699C34.5923 6.66699 38.666 10.7879 38.666 15.8711C38.666 20.9543 34.5922 25.0752 29.5674 25.0752C27.3148 25.0751 25.2549 24.2448 23.666 22.873C22.0771 24.2448 20.0173 25.0751 17.7646 25.0752C12.7398 25.0752 8.66608 20.9543 8.66602 15.8711C8.66602 10.7879 12.7398 6.66699 17.7646 6.66699C20.0171 6.66706 22.0772 7.49655 23.666 8.86816C25.2549 7.49655 27.3149 6.66706 29.5674 6.66699Z" fill="#ED0006"/>
<path d="M29.5674 6.66699C34.5923 6.66699 38.666 10.7879 38.666 15.8711C38.666 20.9543 34.5922 25.0752 29.5674 25.0752C27.3148 25.0751 25.2549 24.2448 23.666 22.873C25.6213 21.1849 26.8623 18.6754 26.8623 15.8711C26.8623 13.0666 25.6216 10.5563 23.666 8.86816C25.2549 7.49655 27.3149 6.66706 29.5674 6.66699Z" fill="#F9A000"/>
<path d="M23.665 8.86816C25.6207 10.5563 26.8623 13.0665 26.8623 15.8711C26.8622 18.6752 25.6202 21.184 23.665 22.8721C21.7101 21.184 20.4688 18.675 20.4688 15.8711C20.4688 13.0667 21.7097 10.5563 23.665 8.86816Z" fill="#FF5E00"/>
</svg>
