<svg width="47" height="32" viewBox="0 0 47 32" fill="none" xmlns="http://www.w3.org/2000/svg">
<rect x="0.666667" y="0.666667" width="45.3333" height="30.6667" rx="4.66667" fill="white" stroke="#D9D9D9" stroke-width="1.33333"/>
<path fill-rule="evenodd" clip-rule="evenodd" d="M13.2 20.3213H11.1259C10.9839 20.3213 10.8632 20.4244 10.8411 20.5645L10.0022 25.8833C9.9855 25.9883 10.0668 26.0828 10.1732 26.0828H11.1635C11.3054 26.0828 11.4261 25.9797 11.4482 25.8393L11.6745 24.4048C11.6963 24.2643 11.8173 24.1613 11.959 24.1613H12.6156C13.9819 24.1613 14.7704 23.5001 14.9764 22.1899C15.0692 21.6167 14.9804 21.1663 14.7119 20.8508C14.4171 20.5046 13.8942 20.3213 13.2 20.3213ZM13.4393 22.2639C13.3259 23.0082 12.7572 23.0082 12.2074 23.0082H11.8944L12.114 21.6181C12.127 21.5342 12.1998 21.4723 12.2847 21.4723H12.4282C12.8027 21.4723 13.1561 21.4723 13.3387 21.6858C13.4474 21.8132 13.4809 22.0024 13.4393 22.2639ZM19.4002 22.24H18.4069C18.3223 22.24 18.2491 22.3019 18.2361 22.386L18.1922 22.6638L18.1227 22.5631C17.9077 22.251 17.4282 22.1467 16.9496 22.1467C15.8519 22.1467 14.9145 22.978 14.7319 24.1442C14.6371 24.7258 14.7719 25.282 15.1019 25.6699C15.4046 26.0266 15.8378 26.1752 16.353 26.1752C17.2374 26.1752 17.7279 25.6065 17.7279 25.6065L17.6835 25.8826C17.6668 25.9881 17.7481 26.0827 17.8539 26.0827H18.7487C18.891 26.0827 19.011 25.9795 19.0334 25.8392L19.5703 22.4396C19.5873 22.335 19.5063 22.24 19.4002 22.24ZM18.0156 24.1732C17.9197 24.7407 17.4694 25.1216 16.895 25.1216C16.6066 25.1216 16.376 25.0291 16.2281 24.8538C16.0813 24.6798 16.0254 24.4319 16.0722 24.156C16.1617 23.5933 16.6197 23.2 17.1853 23.2C17.4672 23.2 17.6966 23.2936 17.8476 23.4705C17.9989 23.6492 18.059 23.8984 18.0156 24.1732ZM23.692 22.2399H24.6901C24.8299 22.2399 24.9115 22.3967 24.832 22.5113L21.5123 27.3032C21.4586 27.3808 21.37 27.427 21.2754 27.427H20.2785C20.1381 27.427 20.0562 27.269 20.1374 27.154L21.1711 25.6949L20.0717 22.4685C20.0337 22.3564 20.1165 22.2399 20.2358 22.2399H21.2166C21.344 22.2399 21.4564 22.3235 21.4932 22.4455L22.0767 24.3941L23.4534 22.3663C23.5073 22.2872 23.5968 22.2399 23.692 22.2399Z" fill="#253B80"/>
<path fill-rule="evenodd" clip-rule="evenodd" d="M34.5142 25.8835L35.3654 20.4675C35.3785 20.3835 35.4513 20.3216 35.5359 20.3213H36.4943C36.6001 20.3213 36.6813 20.4162 36.6646 20.5211L35.8252 25.8396C35.8033 25.98 35.6826 26.0831 35.5404 26.0831H34.6846C34.5787 26.0831 34.4975 25.9885 34.5142 25.8835ZM27.995 20.3216H25.9205C25.7789 20.3216 25.6582 20.4247 25.636 20.5648L24.7971 25.8835C24.7804 25.9885 24.8617 26.0831 24.9676 26.0831H26.0321C26.131 26.0831 26.2156 26.011 26.2311 25.9127L26.4691 24.4051C26.491 24.2646 26.612 24.1616 26.7536 24.1616H27.4099C28.7765 24.1616 29.5648 23.5004 29.771 22.1902C29.8641 21.617 29.7747 21.1666 29.5063 20.8511C29.2117 20.5049 28.6892 20.3216 27.995 20.3216ZM28.2343 22.2642C28.1212 23.0085 27.5525 23.0085 27.0023 23.0085H26.6896L26.9095 21.6184C26.9226 21.5345 26.9947 21.4726 27.0799 21.4726H27.2234C27.5977 21.4726 27.9514 21.4726 28.1338 21.6861C28.2427 21.8135 28.2759 22.0027 28.2343 22.2642ZM34.1946 22.2403H33.202C33.1167 22.2403 33.0443 22.3022 33.0315 22.3863L32.9876 22.664L32.9178 22.5634C32.7028 22.2513 32.2237 22.147 31.7451 22.147C30.6474 22.147 29.7102 22.9783 29.5276 24.1445C29.433 24.7261 29.5674 25.2823 29.8973 25.6702C30.2006 26.0268 30.6332 26.1755 31.1484 26.1755C32.0328 26.1755 32.5232 25.6068 32.5232 25.6068L32.4789 25.8828C32.4622 25.9884 32.5435 26.083 32.65 26.083H33.5444C33.686 26.083 33.8067 25.9798 33.8288 25.8395L34.366 22.4399C34.3824 22.3353 34.3011 22.2403 34.1946 22.2403ZM32.8102 24.1735C32.7149 24.7409 32.2639 25.1219 31.6895 25.1219C31.4016 25.1219 31.1706 25.0294 31.0225 24.8541C30.8757 24.68 30.8206 24.4322 30.8667 24.1562C30.9567 23.5936 31.4141 23.2003 31.9797 23.2003C32.2618 23.2003 32.491 23.2939 32.6422 23.4708C32.794 23.6494 32.8541 23.8987 32.8102 24.1735Z" fill="#179BD7"/>
<path d="M20.8768 18.4184L21.1319 16.7988L20.5638 16.7856H17.8516L19.7365 4.83379C19.7422 4.79771 19.7613 4.76407 19.7891 4.74018C19.8169 4.71629 19.8525 4.70312 19.8896 4.70312H24.4629C25.9813 4.70312 27.029 5.01907 27.5761 5.64266C27.8325 5.93521 27.9959 6.24091 28.0749 6.57733C28.1577 6.93034 28.1592 7.35209 28.0783 7.86647L28.0724 7.90402V8.2336L28.3289 8.37891C28.5449 8.49348 28.7164 8.62464 28.8481 8.77481C29.0676 9.02493 29.2095 9.34283 29.2694 9.71971C29.3313 10.1073 29.3108 10.5686 29.2095 11.0908C29.0924 11.6915 28.9032 12.2146 28.6478 12.6427C28.4127 13.0371 28.1133 13.3642 27.758 13.6178C27.4186 13.8587 27.0154 14.0416 26.5595 14.1586C26.1177 14.2736 25.6141 14.3317 25.0617 14.3317H24.7058C24.4513 14.3317 24.204 14.4233 24.01 14.5877C23.8155 14.7554 23.6867 14.9844 23.6472 15.2351L23.6204 15.3809L23.1699 18.2355L23.1494 18.3404C23.1441 18.3736 23.1348 18.3902 23.1212 18.4014C23.109 18.4115 23.0914 18.4184 23.0743 18.4184H20.8768Z" fill="#253B80"/>
<path d="M28.5718 7.94238C28.5582 8.02965 28.5426 8.11887 28.5251 8.21054C27.9218 11.3071 25.8585 12.3768 23.2232 12.3768H21.8814C21.5592 12.3768 21.2876 12.6108 21.2373 12.9287L20.5503 17.2857L20.3558 18.5207C20.3231 18.7294 20.4841 18.9176 20.6946 18.9176H23.0745C23.3564 18.9176 23.5957 18.7128 23.64 18.4349L23.6635 18.3139L24.1116 15.4704L24.1404 15.3145C24.1842 15.0356 24.424 14.8308 24.7058 14.8308H25.0618C27.3675 14.8308 29.1725 13.8947 29.7001 11.1857C29.9204 10.054 29.8063 9.10914 29.2232 8.44457C29.0468 8.24418 28.8278 8.07792 28.5718 7.94238Z" fill="#179BD7"/>
<path d="M27.9399 7.69109C27.8479 7.66427 27.7527 7.63989 27.6552 7.61795C27.5572 7.5965 27.4567 7.57749 27.3534 7.56091C26.9916 7.5024 26.5952 7.47461 26.1705 7.47461H22.5859C22.4977 7.47461 22.4139 7.4946 22.3388 7.53068C22.1735 7.61015 22.0506 7.76667 22.0209 7.95827L21.2582 12.7881L21.2363 12.929C21.2866 12.6111 21.5582 12.3771 21.8804 12.3771H23.2222C25.8575 12.3771 27.921 11.3069 28.5241 8.21084C28.542 8.11917 28.5572 8.02995 28.5708 7.94268C28.4182 7.86174 28.2529 7.79251 28.0749 7.7335C28.0311 7.71888 27.9858 7.70474 27.9399 7.69109Z" fill="#222D65"/>
<path d="M22.0214 7.95789C22.0512 7.76627 22.1741 7.60977 22.3393 7.53078C22.415 7.49469 22.4983 7.47471 22.5865 7.47471H26.1712C26.5959 7.47471 26.9922 7.5025 27.3539 7.56101C27.4573 7.57758 27.5578 7.5966 27.6558 7.61805C27.7533 7.64 27.8484 7.66438 27.9406 7.69118C27.9863 7.70484 28.0317 7.71897 28.076 7.73312C28.254 7.79211 28.4193 7.86184 28.5719 7.94229C28.7514 6.79796 28.5705 6.01883 27.9518 5.31331C27.2697 4.53662 26.0385 4.2041 24.4632 4.2041H19.8898C19.5679 4.2041 19.2935 4.43812 19.2437 4.75651L17.3389 16.8312C17.3013 17.07 17.4855 17.2856 17.7264 17.2856H20.55L21.2589 12.7877L22.0214 7.95789Z" fill="#253B80"/>
</svg>
