<svg width="47" height="32" viewBox="0 0 47 32" fill="none" xmlns="http://www.w3.org/2000/svg">
<rect x="0.666667" y="0.666667" width="45.3333" height="30.6667" rx="4.66667" fill="white" stroke="#D9D9D9" stroke-width="1.33333"/>
<path d="M11.2207 20.875C11.3765 20.875 11.5051 20.944 11.6064 21.0811V20.9062H11.917V22.041C11.917 22.1903 11.9055 22.3023 11.8809 22.376C11.8563 22.4498 11.8217 22.5078 11.7773 22.5498C11.733 22.5918 11.6736 22.6247 11.5996 22.6484C11.5255 22.6722 11.4316 22.6836 11.3184 22.6836C11.1045 22.6836 10.9529 22.6469 10.8633 22.5732C10.7737 22.4994 10.7285 22.4054 10.7285 22.292C10.7285 22.281 10.7287 22.2677 10.7295 22.252L11.1094 22.293C11.1158 22.34 11.1303 22.3729 11.1533 22.3906C11.1851 22.4158 11.2355 22.4277 11.3037 22.4277C11.391 22.4277 11.4563 22.4147 11.5 22.3887C11.5292 22.3712 11.5522 22.3435 11.5674 22.3047C11.5776 22.2769 11.583 22.2257 11.583 22.1514L11.584 21.9668C11.4853 22.1013 11.3598 22.1688 11.208 22.1689C11.0384 22.1689 10.9037 22.0969 10.8047 21.9531C10.7271 21.8396 10.6885 21.6983 10.6885 21.5293C10.6885 21.3173 10.7391 21.155 10.8408 21.043C10.9426 20.9311 11.0695 20.875 11.2207 20.875ZM25.4336 21.8027L25.7285 20.9062H26.0732L25.5488 22.3428C25.5196 22.4164 25.4913 22.4728 25.4648 22.5117C25.4384 22.5505 25.4074 22.5823 25.373 22.6064C25.3386 22.6306 25.2963 22.6497 25.2461 22.6631C25.1958 22.6767 25.1386 22.6836 25.0752 22.6836C25.011 22.6836 24.9475 22.6766 24.8857 22.6631L24.8545 22.4014C24.907 22.4119 24.955 22.417 24.9971 22.417C25.0749 22.4169 25.1325 22.3945 25.1699 22.3486C25.2074 22.3024 25.236 22.2431 25.2559 22.1719L24.7754 20.9062H25.1309L25.4336 21.8027ZM13.5498 20.875C13.7378 20.8751 13.8865 20.9378 13.9951 21.0625C14.1036 21.1874 14.1551 21.3785 14.1504 21.6357H13.3115C13.3138 21.7351 13.3416 21.8128 13.3936 21.8682C13.4454 21.9231 13.5104 21.9512 13.5879 21.9512C13.6404 21.9511 13.6849 21.9366 13.7207 21.9082C13.7564 21.8799 13.7835 21.8342 13.8018 21.7715L14.1338 21.8262C14.0909 21.9477 14.0231 22.0409 13.9307 22.1045C13.8382 22.1682 13.7219 22.2002 13.583 22.2002C13.3632 22.2001 13.2002 22.1273 13.0947 21.9834C13.0115 21.8682 12.9697 21.7226 12.9697 21.5469C12.9698 21.3373 13.0244 21.1726 13.1338 21.0537C13.2433 20.9347 13.3824 20.875 13.5498 20.875ZM20.0801 20.875C20.2707 20.875 20.4269 20.9373 20.5488 21.0615C20.6707 21.186 20.7324 21.3441 20.7324 21.5342C20.7324 21.7258 20.6699 21.8847 20.5469 22.0107C20.4238 22.1367 20.2688 22.2002 20.082 22.2002C19.9667 22.2001 19.8566 22.1733 19.752 22.1211C19.6472 22.0686 19.5673 21.9919 19.5127 21.8906C19.458 21.7891 19.4307 21.6653 19.4307 21.5195C19.4307 21.4082 19.458 21.3005 19.5127 21.1963C19.5672 21.0923 19.6442 21.0129 19.7441 20.958C19.8442 20.9031 19.9566 20.875 20.0801 20.875ZM24.0039 20.875C24.1527 20.875 24.2641 20.8925 24.3369 20.9277C24.4095 20.9632 24.4606 21.0083 24.4902 21.0625C24.5199 21.1168 24.5351 21.2171 24.5352 21.3623L24.5312 21.7529C24.5312 21.864 24.5372 21.9463 24.5479 21.999C24.5586 22.0518 24.5782 22.1087 24.6074 22.1689H24.2764C24.2675 22.1471 24.2568 22.1142 24.2441 22.0713C24.2388 22.0522 24.2347 22.0397 24.2324 22.0332C24.1755 22.0887 24.1145 22.1303 24.0498 22.1582C23.985 22.186 23.9154 22.2002 23.8418 22.2002C23.7122 22.2002 23.6098 22.1643 23.5352 22.0938C23.4607 22.0232 23.423 21.9339 23.4229 21.8262C23.4229 21.7548 23.4407 21.6908 23.4746 21.6348C23.5087 21.5788 23.556 21.5356 23.6172 21.5059C23.6786 21.4762 23.7673 21.45 23.8828 21.4277C24.0387 21.3984 24.1468 21.3712 24.207 21.3457V21.3115C24.207 21.2466 24.1909 21.2006 24.1592 21.1729C24.1273 21.1452 24.0676 21.1309 23.9795 21.1309C23.9201 21.1309 23.8733 21.1428 23.8398 21.166C23.8064 21.1896 23.7784 21.2311 23.7578 21.29L23.458 21.2354C23.492 21.1131 23.5507 21.0226 23.6338 20.9639C23.7169 20.9051 23.8402 20.875 24.0039 20.875ZM29.0762 20.875C29.2641 20.8751 29.4119 20.938 29.5205 21.0625C29.6292 21.1874 29.6814 21.3783 29.6768 21.6357H28.8379C28.8403 21.7351 28.868 21.8128 28.9199 21.8682C28.9716 21.923 29.0359 21.9511 29.1133 21.9512C29.166 21.9512 29.2112 21.9366 29.2471 21.9082C29.283 21.8799 29.3098 21.8342 29.3281 21.7715L29.6602 21.8262C29.6172 21.9477 29.5494 22.0409 29.457 22.1045C29.3645 22.1682 29.2484 22.2002 29.1094 22.2002C28.8895 22.2002 28.7267 22.1274 28.6211 21.9834C28.5378 21.8681 28.4961 21.7227 28.4961 21.5469C28.4961 21.3372 28.5509 21.1726 28.6602 21.0537C28.7697 20.9347 28.9087 20.875 29.0762 20.875ZM31.9277 20.9062H32.1553V21.1729H31.9277V21.6836C31.9277 21.7867 31.9293 21.8472 31.9336 21.8643C31.9378 21.8813 31.9478 21.8951 31.9629 21.9062C31.9781 21.9173 31.9968 21.9229 32.0186 21.9229C32.049 21.9227 32.093 21.9119 32.1504 21.8906L32.1797 22.1494C32.1025 22.1827 32.0145 22.2002 31.917 22.2002C31.857 22.2002 31.8029 22.1892 31.7549 22.1689C31.7072 22.1488 31.6719 22.1229 31.6494 22.0908C31.627 22.0587 31.6112 22.0147 31.6025 21.96C31.5954 21.9209 31.5928 21.8424 31.5928 21.7246V21.1729H31.4404V20.9062H31.5928V20.6543L31.9277 20.457V20.9062ZM32.918 20.875C33.0912 20.875 33.2203 20.9032 33.3047 20.959C33.3889 21.0149 33.4476 21.0977 33.4795 21.207L33.165 21.2656C33.1514 21.2169 33.1257 21.1794 33.0879 21.1533C33.0498 21.1271 32.9952 21.1143 32.9248 21.1143C32.8361 21.1143 32.7727 21.1265 32.7344 21.1514C32.7088 21.1688 32.6954 21.191 32.6953 21.2188C32.6953 21.2427 32.7064 21.2635 32.7285 21.2803C32.7587 21.3025 32.8636 21.3343 33.042 21.375C33.2204 21.4157 33.3452 21.4654 33.416 21.5244C33.4857 21.5842 33.5205 21.6677 33.5205 21.7744C33.5205 21.8906 33.4723 21.9906 33.376 22.0742C33.2793 22.158 33.1364 22.2002 32.9473 22.2002C32.7759 22.2002 32.6401 22.165 32.54 22.0957C32.44 22.0261 32.3746 21.9318 32.3438 21.8125L32.6787 21.7607C32.6929 21.825 32.7214 21.8737 32.7646 21.9072C32.8082 21.9407 32.8691 21.958 32.9473 21.958C33.0333 21.958 33.0982 21.9419 33.1416 21.9102C33.1708 21.8877 33.1855 21.8578 33.1855 21.8203C33.1855 21.7949 33.1779 21.7734 33.1621 21.7568C33.1453 21.7408 33.1079 21.7255 33.0498 21.7119C32.7792 21.652 32.6074 21.5981 32.5352 21.5488C32.4349 21.4805 32.3848 21.3851 32.3848 21.2637C32.3848 21.154 32.428 21.0618 32.5146 20.9873C32.6014 20.9126 32.736 20.875 32.918 20.875ZM37.96 20.875C38.148 20.875 38.2965 20.9378 38.4053 21.0625C38.5138 21.1874 38.5662 21.3784 38.5615 21.6357H37.7217C37.7241 21.7351 37.7519 21.8128 37.8037 21.8682C37.8557 21.9232 37.9207 21.9512 37.998 21.9512C38.0507 21.9511 38.0949 21.9366 38.1309 21.9082C38.1666 21.88 38.1935 21.8343 38.2119 21.7715L38.5439 21.8262C38.5011 21.9478 38.4333 22.0409 38.3408 22.1045C38.2484 22.1682 38.132 22.2002 37.9932 22.2002C37.7734 22.2001 37.6103 22.1273 37.5049 21.9834C37.4217 21.8682 37.3799 21.7226 37.3799 21.5469C37.3799 21.3371 37.4354 21.1726 37.5449 21.0537C37.6543 20.9348 37.7926 20.875 37.96 20.875ZM39.3965 20.875C39.5449 20.875 39.6558 20.8927 39.7285 20.9277C39.8013 20.9632 39.8532 21.0082 39.8828 21.0625C39.9125 21.1168 39.9267 21.2171 39.9268 21.3623L39.9238 21.7529C39.9238 21.864 39.9288 21.9463 39.9395 21.999C39.9502 22.0518 39.9699 22.1086 39.999 22.1689H39.668C39.6591 22.1471 39.6486 22.1142 39.6357 22.0713C39.6305 22.0522 39.6263 22.0396 39.624 22.0332C39.5671 22.0887 39.5061 22.1304 39.4414 22.1582C39.3767 22.1859 39.3077 22.2001 39.2344 22.2002C39.1048 22.2002 39.0024 22.1642 38.9277 22.0938C38.8533 22.0231 38.8155 21.934 38.8154 21.8262C38.8154 21.7549 38.8323 21.6907 38.8662 21.6348C38.9002 21.5788 38.9485 21.5356 39.0098 21.5059C39.0711 21.4763 39.1593 21.4499 39.2744 21.4277C39.43 21.3985 39.5384 21.3711 39.5986 21.3457V21.3115C39.5986 21.2466 39.5825 21.2006 39.5508 21.1729C39.5189 21.1453 39.4592 21.1309 39.3711 21.1309C39.3116 21.1309 39.2649 21.1427 39.2314 21.166C39.1981 21.1896 39.1709 21.2312 39.1504 21.29L38.8496 21.2354C38.8836 21.1132 38.9424 21.0226 39.0254 20.9639C39.1086 20.9051 39.2326 20.875 39.3965 20.875ZM7.375 20.3945C7.59321 20.3945 7.7578 20.4421 7.86816 20.5381C7.97853 20.6343 8.03647 20.7634 8.04199 20.9238L7.68945 20.9375C7.67443 20.8479 7.64224 20.7835 7.59277 20.7441C7.54339 20.7049 7.46899 20.6846 7.37012 20.6846C7.26826 20.6846 7.18855 20.7061 7.13086 20.748C7.09372 20.7749 7.0752 20.8114 7.0752 20.8564C7.07532 20.8974 7.09245 20.9326 7.12695 20.9619C7.17114 20.9991 7.2794 21.038 7.4502 21.0781C7.62074 21.1184 7.74728 21.1598 7.8291 21.2031C7.9107 21.2463 7.97426 21.306 8.02051 21.3809C8.06665 21.4561 8.08981 21.5488 8.08984 21.6592C8.08984 21.7594 8.06221 21.8531 8.00684 21.9404C7.95138 22.0279 7.87279 22.0932 7.77148 22.1357C7.67034 22.1781 7.54441 22.1992 7.39355 22.1992C7.17348 22.1992 7.00373 22.1484 6.88574 22.0459C6.76795 21.9434 6.69777 21.7939 6.6748 21.5977L7.0166 21.5635C7.03715 21.6787 7.07885 21.7632 7.1416 21.8174C7.20457 21.8715 7.28965 21.8984 7.39648 21.8984C7.50953 21.8984 7.59492 21.8742 7.65234 21.8262C7.70932 21.7782 7.73819 21.7223 7.73828 21.6582C7.73828 21.617 7.72598 21.5818 7.70215 21.5527C7.67808 21.5238 7.63608 21.4981 7.57617 21.4766C7.53512 21.4625 7.44157 21.4376 7.2959 21.4014C7.10822 21.3549 6.97622 21.2974 6.90039 21.2295C6.79389 21.1339 6.74023 21.0166 6.74023 20.8789C6.74032 20.7907 6.76525 20.7078 6.81543 20.6309C6.86559 20.5537 6.93875 20.4954 7.0332 20.4551C7.12769 20.4149 7.24151 20.3945 7.375 20.3945ZM17.2617 21.4863C17.2617 21.6641 17.2679 21.7735 17.2803 21.8135C17.2926 21.8536 17.3143 21.8858 17.3467 21.9092C17.3791 21.9325 17.4208 21.9434 17.4707 21.9434C17.5276 21.9433 17.579 21.9279 17.624 21.8965C17.669 21.8652 17.7002 21.8266 17.7168 21.7803C17.7334 21.7339 17.7412 21.6202 17.7412 21.4395V20.9062H18.0762V22.168H17.7656V21.9795C17.7196 22.0468 17.6589 22.0999 17.584 22.1396C17.509 22.1792 17.4299 22.1992 17.3467 22.1992C17.2617 22.1992 17.1857 22.1808 17.1182 22.1436C17.0508 22.1063 17.0018 22.0537 16.9717 21.9863C16.9416 21.9189 16.9268 21.8258 16.9268 21.707V20.9062H17.2617V21.4863ZM8.79004 22.1689H8.45508V20.9062H8.79004V22.1689ZM9.92969 20.875C10.003 20.875 10.0702 20.8886 10.1309 20.915C10.1917 20.9416 10.2383 20.9754 10.2695 21.0166C10.3007 21.0578 10.3227 21.1049 10.335 21.1572C10.3472 21.2096 10.3525 21.2852 10.3525 21.3828V22.1689H10.0186V21.5234C10.0186 21.3869 10.0112 21.2979 9.99707 21.2578C9.98281 21.2178 9.95962 21.1863 9.92773 21.1641C9.89585 21.142 9.85726 21.1309 9.8125 21.1309C9.75494 21.1309 9.70296 21.1469 9.65723 21.1787C9.61166 21.2104 9.58039 21.2524 9.56348 21.3047C9.54646 21.357 9.53809 21.4543 9.53809 21.5957V22.1689H9.20312V20.9062H9.51367V21.0918C9.6236 20.9474 9.76287 20.875 9.92969 20.875ZM12.6533 22.1689H12.3184V20.4258H12.6533V22.1689ZM16.5342 20.7197H15.5986V21.1074H16.4688V21.4014H15.5986V21.875H16.5684V22.1689H15.2461V20.4258H16.5342V20.7197ZM19.0752 20.875C19.1511 20.875 19.2246 20.8965 19.2949 20.9385L19.1934 21.2305C19.1371 21.1942 19.0844 21.1758 19.0361 21.1758C18.9892 21.1758 18.9496 21.1892 18.917 21.2148C18.8844 21.2407 18.8585 21.2872 18.8398 21.3545C18.8212 21.4219 18.8125 21.5634 18.8125 21.7783V22.1689H18.4775V20.9062H18.7881V21.0859C18.8411 21.0014 18.8883 20.9449 18.9307 20.917C18.973 20.8893 19.0214 20.8751 19.0752 20.875ZM22.3857 20.4258C22.5993 20.4258 22.7389 20.4348 22.8037 20.4521C22.9033 20.4783 22.9864 20.5354 23.0537 20.623C23.1209 20.7105 23.1552 20.8233 23.1553 20.9619C23.1553 21.0689 23.1355 21.1593 23.0967 21.2324C23.058 21.3051 23.0088 21.3627 22.9492 21.4043C22.8897 21.4459 22.829 21.4728 22.7676 21.4863C22.6837 21.503 22.5621 21.5117 22.4033 21.5117H22.1748V22.1689H21.8223V20.4258H22.3857ZM27.7783 20.875C27.871 20.875 27.9495 20.8939 28.0137 20.9316C28.0777 20.9691 28.1255 21.0247 28.1572 21.0977C28.1801 21.1516 28.1924 21.2396 28.1924 21.3604V22.1689H27.8574V21.4453C27.8574 21.3201 27.8451 21.2396 27.8223 21.2031C27.7914 21.1554 27.7445 21.1309 27.6807 21.1309C27.634 21.1309 27.5899 21.1453 27.5488 21.1738C27.5077 21.2025 27.4781 21.2446 27.46 21.2998C27.4417 21.3549 27.4326 21.4424 27.4326 21.5615V22.1689H27.0977V21.4756C27.0977 21.3525 27.092 21.2733 27.0801 21.2373C27.0683 21.2016 27.0494 21.1747 27.0244 21.1572C26.9995 21.14 26.9655 21.1309 26.9229 21.1309C26.8716 21.1309 26.8252 21.1451 26.7842 21.1729C26.7432 21.2006 26.7142 21.2408 26.6963 21.293C26.6785 21.3454 26.6699 21.4324 26.6699 21.5537V22.1689H26.335V20.9062H26.6416V21.0791C26.752 20.9434 26.8837 20.875 27.0361 20.875C27.117 20.875 27.1875 20.8915 27.2471 20.9248C27.3066 20.9582 27.3556 21.0088 27.3936 21.0762C27.4489 21.009 27.5084 20.9582 27.5723 20.9248C27.6366 20.8915 27.7054 20.875 27.7783 20.875ZM30.7432 20.875C30.8167 20.875 30.8846 20.8885 30.9453 20.915C31.0061 20.9416 31.0527 20.9754 31.084 21.0166C31.1152 21.0578 31.1362 21.1049 31.1484 21.1572C31.1608 21.2096 31.167 21.2852 31.167 21.3828V22.1689H30.832V21.5234C30.832 21.3869 30.8256 21.2979 30.8115 21.2578C30.7973 21.2178 30.7741 21.1863 30.7422 21.1641C30.7103 21.142 30.6717 21.1309 30.627 21.1309C30.5695 21.1309 30.5173 21.1469 30.4717 21.1787C30.4261 21.2104 30.395 21.2524 30.3779 21.3047C30.361 21.357 30.3525 21.4543 30.3525 21.5957V22.1689H30.0176V20.9062H30.3281V21.0918C30.4381 20.9475 30.5765 20.8751 30.7432 20.875ZM36.2041 22.1689H35.8252L35.6748 21.7744H34.9736L34.8301 22.1689H34.458L35.1318 20.4258H35.502L36.2041 22.1689ZM37.043 20.875C37.1189 20.875 37.1922 20.8964 37.2627 20.9385L37.1611 21.2305C37.1047 21.1941 37.0513 21.1758 37.0029 21.1758C36.9561 21.1759 36.9163 21.1893 36.8838 21.2148C36.8513 21.2407 36.8261 21.2874 36.8076 21.3545C36.7888 21.4219 36.7793 21.5634 36.7793 21.7783V22.1689H36.4443V20.9062H36.7549V21.0859C36.808 21.0012 36.8559 20.9449 36.8984 20.917C36.9407 20.8893 36.989 20.875 37.043 20.875ZM24.0049 21.6152C23.9125 21.635 23.8515 21.6548 23.8232 21.6738C23.7799 21.7049 23.7578 21.7444 23.7578 21.792C23.7579 21.8389 23.776 21.8789 23.8105 21.9131C23.8453 21.9473 23.8896 21.9648 23.9434 21.9648C24.0031 21.9648 24.0599 21.9448 24.1143 21.9053C24.1545 21.875 24.1817 21.8378 24.1943 21.7939C24.2029 21.7652 24.207 21.7102 24.207 21.6299V21.5635C24.1643 21.5778 24.097 21.5954 24.0049 21.6152ZM39.3965 21.6152C39.3043 21.635 39.2443 21.6548 39.2158 21.6738C39.1723 21.7049 39.1504 21.7443 39.1504 21.792C39.1505 21.8387 39.1676 21.8789 39.2021 21.9131C39.2368 21.9473 39.2812 21.9648 39.335 21.9648C39.395 21.9648 39.4523 21.945 39.5068 21.9053C39.547 21.875 39.5733 21.8378 39.5859 21.7939C39.5945 21.7653 39.5986 21.7103 39.5986 21.6299V21.5635C39.556 21.5778 39.4886 21.5954 39.3965 21.6152ZM20.082 21.1484C19.9946 21.1484 19.9209 21.1822 19.8613 21.249C19.8019 21.3157 19.7725 21.4126 19.7725 21.5381C19.7725 21.6635 19.802 21.7594 19.8613 21.8262C19.9209 21.893 19.9946 21.9268 20.082 21.9268C20.1692 21.9267 20.2427 21.893 20.3018 21.8262C20.3607 21.7593 20.3906 21.6622 20.3906 21.5352C20.3906 21.4113 20.3607 21.3157 20.3018 21.249C20.2427 21.1822 20.1692 21.1485 20.082 21.1484ZM11.3037 21.1309C11.2245 21.1309 11.1588 21.1624 11.1074 21.2246C11.0559 21.2871 11.0303 21.3828 11.0303 21.5107C11.0303 21.6449 11.056 21.7434 11.1074 21.8057C11.1588 21.868 11.2225 21.8994 11.2979 21.8994C11.3784 21.8993 11.4462 21.8666 11.502 21.8027C11.5576 21.7388 11.5859 21.6442 11.5859 21.5186C11.5859 21.3876 11.5592 21.2902 11.5059 21.2266C11.4525 21.1631 11.3852 21.1309 11.3037 21.1309ZM35.0801 21.4805H35.5586L35.3154 20.834L35.0801 21.4805ZM13.5693 21.1309C13.4962 21.1309 13.4354 21.1581 13.3877 21.2119C13.34 21.2657 13.3167 21.3393 13.3174 21.4316H13.8193C13.817 21.3337 13.7918 21.2592 13.7441 21.208C13.6964 21.1569 13.6378 21.1309 13.5693 21.1309ZM29.0957 21.1309C29.0226 21.1309 28.9617 21.158 28.9141 21.2119C28.8663 21.2657 28.8431 21.3392 28.8438 21.4316H29.3457C29.3432 21.3337 29.3183 21.2592 29.2705 21.208C29.2229 21.1569 29.1642 21.1309 29.0957 21.1309ZM37.9805 21.1309C37.9072 21.1309 37.8465 21.1582 37.7988 21.2119C37.7511 21.2657 37.7277 21.3392 37.7285 21.4316H38.2295C38.227 21.3336 38.202 21.2592 38.1543 21.208C38.1066 21.157 38.0487 21.131 37.9805 21.1309ZM22.1748 21.2178H22.3662C22.5043 21.2178 22.5969 21.2088 22.6436 21.1904C22.69 21.1721 22.7266 21.1426 22.7529 21.1035C22.7791 21.0646 22.792 21.0194 22.792 20.9678C22.792 20.9039 22.7734 20.8511 22.7363 20.8096C22.6992 20.7682 22.6524 20.7418 22.5957 20.7314C22.5538 20.7235 22.4698 20.7197 22.3438 20.7197H22.1748V21.2178ZM8.79004 20.7334H8.45508V20.4258H8.79004V20.7334ZM10.5576 10.7148C11.5146 10.7148 12.197 10.7707 12.6035 10.8799C13.5956 11.147 14.0918 11.895 14.0918 13.124C14.0918 13.2248 14.084 13.3758 14.0693 13.5771H11.7891C11.7891 13.2023 11.7457 12.9503 11.6582 12.8223C11.5225 12.6329 11.1479 12.5381 10.5352 12.5381C9.93991 12.5381 9.5451 12.5929 9.35254 12.7021C9.16011 12.8117 9.06348 13.0502 9.06348 13.417C9.06354 13.7489 9.14936 13.9675 9.32031 14.0723C9.4428 14.1465 9.60494 14.1901 9.80664 14.2031L10.2656 14.2363C11.251 14.3018 11.8668 14.3478 12.1123 14.374C12.8916 14.4527 13.4571 14.6597 13.8076 14.9961C14.0834 15.2585 14.2473 15.6019 14.2998 16.0254C14.3305 16.2788 14.3457 16.5662 14.3457 16.8848C14.3457 17.6188 14.2757 18.1563 14.1357 18.4971C13.8819 19.1224 13.312 19.5177 12.4248 19.6836C12.0531 19.7538 11.4837 19.7891 10.7188 19.7891C9.44203 19.789 8.55221 19.7126 8.0498 19.5596C7.43331 19.3721 7.02688 18.9926 6.83008 18.4209C6.7205 18.1026 6.66603 17.5721 6.66602 16.8301H8.94629C8.94629 16.9127 8.94629 16.976 8.94629 17.0195C8.94631 17.4155 9.06032 17.6698 9.28711 17.7832C9.44419 17.8614 9.63353 17.9033 9.85645 17.9082H10.6953C11.123 17.9082 11.3959 17.8858 11.5137 17.8418C11.7232 17.7592 11.861 17.6263 11.9268 17.4424C11.9616 17.3293 11.9785 17.1829 11.9785 17.0039C11.9785 16.6023 11.8323 16.3572 11.54 16.2695C11.4304 16.2349 10.9215 16.1871 10.0146 16.126C9.28645 16.0739 8.78058 16.0232 8.49707 15.9746C7.75058 15.8347 7.25312 15.547 7.00488 15.1104C6.78678 14.7394 6.67679 14.1784 6.67676 13.4277C6.67676 12.8558 6.73564 12.3967 6.85352 12.0518C6.97151 11.7067 7.16243 11.4448 7.4248 11.2656C7.80911 10.9908 8.3009 10.8295 8.89941 10.7812C9.39745 10.7378 9.94992 10.7149 10.5576 10.7148ZM28.6621 10.667C29.2884 10.667 29.7664 10.718 30.0947 10.8203C30.8457 11.056 31.3494 11.5392 31.6074 12.2686C31.7406 12.6513 31.8076 13.2276 31.8076 13.9971C31.8076 14.9223 31.7331 15.5874 31.5869 15.9922C31.294 16.7926 30.6915 17.2535 29.7812 17.373C29.6742 17.391 29.2188 17.4071 28.415 17.4199L28.0078 17.4336H26.5469V19.7891H24.0957V10.667H28.6621ZM39.9893 19.7891H37.5068L37.0391 18.2119H33.7617L33.3223 19.7891H30.7861L33.5225 10.667H37.2197L39.9893 19.7891ZM34.2891 16.4355H36.5518L35.4033 12.4814L34.2891 16.4355ZM26.5469 15.3174H28.0752C28.5594 15.2999 28.8539 15.2625 28.96 15.2041C29.1046 15.1243 29.2016 14.9649 29.25 14.7256C29.2809 14.5661 29.2969 14.3286 29.2969 14.0137C29.2969 13.628 29.2658 13.342 29.2041 13.1553C29.1159 12.8938 28.9046 12.7346 28.5703 12.6768C28.5041 12.668 28.346 12.6631 28.0957 12.6631H26.5469V15.3174Z" fill="#10298E"/>
<path fill-rule="evenodd" clip-rule="evenodd" d="M20.7126 11.9502C21.7235 11.9502 22.6256 12.4166 23.2186 13.1473L23.7469 12.0126C22.9207 11.2303 21.7961 10.748 20.5558 10.748C18.6247 10.748 16.9727 11.9163 16.2947 13.5701H15.2645L14.6562 14.8764H15.9815C15.9716 14.9976 15.9652 15.1189 15.9652 15.2426C15.9652 15.3923 15.9729 15.5403 15.9877 15.6865H15.3217L14.7135 16.9932H16.3263C17.0237 18.6051 18.655 19.7368 20.5558 19.7368C21.5138 19.7368 22.4027 19.4493 23.1387 18.9581V17.3567C22.546 18.0327 21.679 18.4598 20.7126 18.4598C19.5829 18.4598 18.5891 17.8763 18.0104 16.9932H21.3878L21.996 15.6865H17.5135C17.4904 15.5292 17.478 15.3685 17.478 15.2048C17.478 15.0942 17.4838 14.9846 17.4944 14.8764H22.3729L22.9811 13.5701H17.9163C18.4764 12.6018 19.5188 11.9502 20.7126 11.9502Z" fill="#FFBE00"/>
</svg>
