<svg width="47" height="32" viewBox="0 0 47 32" fill="none" xmlns="http://www.w3.org/2000/svg">
<rect x="0.666667" y="0.666667" width="45.3333" height="30.6667" rx="4.66667" fill="white" stroke="#D9D9D9" stroke-width="1.33333"/>
<path fill-rule="evenodd" clip-rule="evenodd" d="M14.167 21.6773H11.3399L9.21994 13.5895C9.11932 13.2175 8.90566 12.8886 8.59139 12.7335C7.80708 12.344 6.94282 12.0339 6 11.8776V11.5662H10.5542C11.1828 11.5662 11.6542 12.0339 11.7328 12.5772L12.8327 18.4112L15.6584 11.5662H18.407L14.167 21.6773ZM19.9783 21.6773H17.3084L19.5069 11.5662H22.1769L19.9783 21.6773ZM25.6312 14.3673C25.7097 13.8227 26.1811 13.5113 26.7311 13.5113C27.5954 13.4331 28.5368 13.5895 29.3225 13.9777L29.7939 11.8008C29.0082 11.4894 28.144 11.333 27.3597 11.333C24.7683 11.333 22.8826 12.7336 22.8826 14.6773C22.8826 16.1561 24.2183 16.9325 25.1611 17.4002C26.1811 17.8666 26.574 18.178 26.4954 18.6444C26.4954 19.344 25.7097 19.6554 24.9254 19.6554C23.9826 19.6554 23.0398 19.4222 22.1769 19.0326L21.7055 21.2109C22.6483 21.5992 23.6683 21.7555 24.6111 21.7555C27.5168 21.8324 29.3225 20.4332 29.3225 18.333C29.3225 15.6883 25.6312 15.5333 25.6312 14.3673ZM38.6667 21.6773L36.5467 11.5662H34.2696C33.7982 11.5662 33.3267 11.8776 33.1696 12.344L29.2439 21.6773H31.9925L32.5411 20.2H35.9181L36.2324 21.6773H38.6667ZM34.6624 14.2891L35.4467 18.0998H33.2482L34.6624 14.2891Z" fill="#172B85"/>
</svg>
