<svg width="49" height="53" viewBox="0 0 49 53" fill="none" xmlns="http://www.w3.org/2000/svg">
<path opacity="0.6" d="M7.36816 0.148485C7.8384 -0.140863 8.45461 0.00555707 8.74414 0.475633C9.03353 0.945886 8.8871 1.56208 8.41699 1.85161L3.7168 4.74223C14.1739 8.69317 18.5025 16.1454 19.3652 19.7686C19.4931 20.3058 19.1612 20.8448 18.624 20.9727C18.0868 21.1005 17.5478 20.7687 17.4199 20.2315C16.7334 17.3487 13.0706 10.7193 3.82422 6.93364L6.7334 11.459C7.03197 11.9235 6.89785 12.5421 6.43359 12.8409C5.96914 13.1394 5.35049 13.0054 5.05176 12.5411L0.551758 5.54106L0 4.68266L0.868164 4.14848L7.36816 0.148485Z" fill="black"/>
<path opacity="0.6" d="M12.22 42.41C11.98 42.2767 11.8467 42.13 11.82 41.97C11.8067 41.81 11.9 41.53 12.1 41.13C12.3 40.73 12.6133 40.11 13.04 39.27C13.36 38.67 13.5733 38.2033 13.68 37.87C13.8 37.5233 13.8667 37.2767 13.88 37.13C13.8933 36.9833 13.9 36.89 13.9 36.85C13.8733 36.73 13.8867 36.6367 13.94 36.57C13.9933 36.49 14.08 36.4233 14.2 36.37C14.2667 36.3033 14.42 36.1833 14.66 36.01C14.9 35.8367 15.0867 35.63 15.22 35.39C15.34 35.11 15.4733 34.8233 15.62 34.53C15.78 34.2367 15.9867 33.87 16.24 33.43C16.4933 32.9767 16.8333 32.39 17.26 31.67C17.5267 31.2033 17.84 30.6767 18.2 30.09C18.5733 29.5033 18.94 28.97 19.3 28.49C19.4467 28.3033 19.6 28.1567 19.76 28.05C19.92 27.9433 20.06 27.89 20.18 27.89C20.4733 27.89 20.7667 27.97 21.06 28.13C21.3533 28.2767 21.6133 28.4633 21.84 28.69C22.0667 28.9167 22.22 29.13 22.3 29.33C22.3667 29.4367 22.3933 29.6633 22.38 30.01C22.3667 30.3567 22.34 30.7767 22.3 31.27C22.26 31.7633 22.2133 32.29 22.16 32.85C22.12 33.3967 22.06 34.0433 21.98 34.79C21.9 35.5367 21.82 36.3167 21.74 37.13C21.6733 37.9433 21.62 38.73 21.58 39.49C21.54 40.2367 21.54 40.89 21.58 41.45C21.5933 41.57 21.5933 41.6833 21.58 41.79C21.5667 41.8967 21.56 41.9833 21.56 42.05C21.48 42.13 21.3067 42.1633 21.04 42.15C20.7733 42.15 20.5133 42.11 20.26 42.03C20.0067 41.95 19.8667 41.85 19.84 41.73C19.8 41.69 19.7733 41.6567 19.76 41.63C19.7467 41.6033 19.7467 41.4767 19.76 41.25C19.7733 41.01 19.7933 40.5767 19.82 39.95L19.92 36.89L19.66 36.91C19.54 36.91 19.32 36.9233 19 36.95C18.6933 36.9767 18.3533 37.0167 17.98 37.07C17.62 37.11 17.2867 37.1567 16.98 37.21C16.6733 37.25 16.46 37.29 16.34 37.33C16.22 37.33 16.0733 37.41 15.9 37.57C15.74 37.73 15.5867 37.9367 15.44 38.19C15.3867 38.3767 15.2867 38.5767 15.14 38.79C15.0067 38.99 14.94 39.1233 14.94 39.19C14.8467 39.2567 14.7667 39.3367 14.7 39.43C14.6467 39.5233 14.62 39.57 14.62 39.57C14.62 39.65 14.56 39.85 14.44 40.17C14.32 40.4767 14.1733 40.8233 14 41.21C13.8267 41.5833 13.6467 41.91 13.46 42.19L12.92 42.95L12.22 42.41ZM17 35.53C17 35.53 17.0733 35.5167 17.22 35.49C17.3667 35.4633 17.54 35.4367 17.74 35.41C17.9533 35.37 18.14 35.35 18.3 35.35C18.6067 35.27 18.86 35.21 19.06 35.17C19.2733 35.13 19.4467 35.11 19.58 35.11C19.7133 35.0967 19.82 35.11 19.9 35.15C19.9533 35.2167 20 35.2567 20.04 35.27C20.0933 35.2833 20.12 35.29 20.12 35.29C20.1333 35.2633 20.16 35.1233 20.2 34.87C20.24 34.6167 20.2867 34.3033 20.34 33.93C20.3933 33.5567 20.4467 33.17 20.5 32.77C20.5533 32.3567 20.6 31.9767 20.64 31.63C20.68 31.27 20.7067 30.99 20.72 30.79C20.7333 30.5367 20.7267 30.31 20.7 30.11C20.6733 29.8967 20.66 29.79 20.66 29.79C20.58 29.79 20.4267 29.9367 20.2 30.23C19.9867 30.51 19.7333 30.89 19.44 31.37C19.16 31.8367 18.88 32.3433 18.6 32.89C18.4667 33.1433 18.34 33.3433 18.22 33.49C18.1133 33.6367 18.0267 33.71 17.96 33.71C17.9333 33.7367 17.86 33.8433 17.74 34.03C17.6333 34.2033 17.5133 34.4033 17.38 34.63C17.26 34.8433 17.1533 35.0433 17.06 35.23C16.98 35.4033 16.96 35.5033 17 35.53ZM23.8948 44.17C23.8148 44.2233 23.6882 44.21 23.5148 44.13C23.3415 44.05 23.1615 43.9033 22.9748 43.69C22.8815 43.5833 22.7548 43.47 22.5948 43.35C22.4482 43.23 22.3948 43.0033 22.4348 42.67C22.4882 42.5233 22.5148 42.33 22.5148 42.09C22.5282 41.8633 22.5348 41.7233 22.5348 41.67C22.5348 41.59 22.5548 41.4033 22.5948 41.11C22.6482 40.8167 22.7015 40.51 22.7548 40.19C22.8082 39.8567 22.8548 39.6033 22.8948 39.43C22.8948 39.4167 22.9015 39.3833 22.9148 39.33C22.9282 39.2767 22.9415 39.23 22.9548 39.19C22.9815 39.07 23.0148 38.91 23.0548 38.71C23.1082 38.51 23.1548 38.2633 23.1948 37.97C23.3015 37.6367 23.3882 37.31 23.4548 36.99C23.5348 36.6567 23.5748 36.43 23.5748 36.31C23.5748 36.07 23.6682 35.8967 23.8548 35.79C23.8682 35.7233 23.9082 35.6233 23.9748 35.49C24.0415 35.3433 24.1015 35.2233 24.1548 35.13C24.4215 34.37 24.6282 33.77 24.7748 33.33C24.9215 32.8767 25.0882 32.4833 25.2748 32.15C25.3548 31.9233 25.4682 31.69 25.6148 31.45C25.7748 31.21 25.9082 31.0233 26.0148 30.89C26.0815 30.7167 26.2348 30.4967 26.4748 30.23C26.7148 29.95 26.9682 29.6833 27.2348 29.43C27.5015 29.1633 27.7148 28.9633 27.8748 28.83C28.1682 28.6833 28.4482 28.5633 28.7148 28.47C28.9948 28.3633 29.2748 28.31 29.5548 28.31C29.8082 28.31 30.0415 28.3767 30.2548 28.51C30.4682 28.63 30.6615 28.77 30.8348 28.93C31.0215 29.13 31.1282 29.2633 31.1548 29.33C31.1815 29.3967 31.1948 29.5233 31.1948 29.71C31.1682 29.8433 31.0882 30.0433 30.9548 30.31C30.8215 30.5633 30.6682 30.83 30.4948 31.11C30.3215 31.39 30.1615 31.63 30.0148 31.83C29.8682 32.03 29.7682 32.13 29.7148 32.13C29.4082 32.2233 29.2548 32.0633 29.2548 31.65C29.2548 31.5567 29.2015 31.47 29.0948 31.39C29.0015 31.2967 28.9548 31.25 28.9548 31.25C28.9548 31.21 28.9748 31.1033 29.0148 30.93C29.0682 30.7433 29.1215 30.6033 29.1748 30.51C29.2415 30.3767 29.2548 30.2767 29.2148 30.21C29.1882 30.1433 29.1015 30.13 28.9548 30.17C28.9148 30.1967 28.8282 30.2567 28.6948 30.35C28.5748 30.43 28.4415 30.5233 28.2948 30.63C28.1615 30.7233 28.0415 30.8233 27.9348 30.93C27.8415 31.0233 27.7948 31.09 27.7948 31.13C27.7948 31.13 27.7682 31.19 27.7148 31.31C27.6615 31.4167 27.5615 31.5567 27.4148 31.73C27.3215 31.8633 27.2348 31.9967 27.1548 32.13C27.0882 32.25 27.0548 32.3233 27.0548 32.35C27.0548 32.4033 27.0482 32.4633 27.0348 32.53C27.0348 32.5833 27.0015 32.61 26.9348 32.61C26.9348 32.61 26.9148 32.67 26.8748 32.79C26.8348 32.91 26.7615 33.0633 26.6548 33.25C26.6015 33.3833 26.5348 33.5233 26.4548 33.67C26.3748 33.8033 26.3082 33.8967 26.2548 33.95H26.2748C26.2748 33.95 26.2548 34.03 26.2148 34.19C26.1748 34.35 26.1282 34.5167 26.0748 34.69C26.0348 34.8633 26.0082 34.9767 25.9948 35.03C26.1815 35.0167 26.4082 34.9767 26.6748 34.91C26.9548 34.8433 27.2615 34.79 27.5948 34.75C28.1148 34.6833 28.5948 34.61 29.0348 34.53C29.4748 34.45 29.9282 34.3033 30.3948 34.09C30.5148 33.7967 30.6415 33.4967 30.7748 33.19C30.9215 32.8833 31.0548 32.6167 31.1748 32.39C31.3082 32.15 31.4015 31.9967 31.4548 31.93C31.6815 31.81 31.9015 31.7233 32.1148 31.67C32.3415 31.6167 32.5215 31.6967 32.6548 31.91C32.7215 32.0033 32.7882 32.0767 32.8548 32.13C32.9215 32.17 32.9682 32.2433 32.9948 32.35C33.0215 32.4433 32.9948 32.5967 32.9148 32.81C32.8482 33.0233 32.7015 33.3433 32.4748 33.77C32.4082 33.9033 32.3482 34.0233 32.2948 34.13C32.2415 34.2233 32.2148 34.27 32.2148 34.27C32.2682 34.2833 32.3482 34.29 32.4548 34.29C32.5615 34.29 32.6948 34.2833 32.8548 34.27C33.0015 34.2433 33.1415 34.2233 33.2748 34.21C33.4082 34.1833 33.5415 34.1833 33.6748 34.21C33.9815 34.21 34.2082 34.3167 34.3548 34.53C34.5015 34.7433 34.5815 34.9833 34.5948 35.25C34.6215 35.3967 34.5415 35.51 34.3548 35.59C34.1682 35.67 33.8948 35.71 33.5348 35.71C33.4148 35.71 33.2415 35.7167 33.0148 35.73C32.7882 35.7433 32.5548 35.7567 32.3148 35.77C32.0882 35.77 31.8882 35.7833 31.7148 35.81C31.5548 35.8233 31.4748 35.8433 31.4748 35.87C31.4348 35.8967 31.3815 36.01 31.3148 36.21C31.2615 36.41 31.2015 36.6433 31.1348 36.91C31.0815 37.1767 31.0215 37.4233 30.9548 37.65C30.8615 38.1033 30.7748 38.53 30.6948 38.93C30.6282 39.33 30.5948 39.6767 30.5948 39.97C30.6082 40.25 30.6748 40.4567 30.7948 40.59C30.9148 40.71 31.1215 40.7633 31.4148 40.75C31.7215 40.7233 31.9815 40.6233 32.1948 40.45C32.5148 40.17 32.7748 40.0567 32.9748 40.11C33.1748 40.1633 33.2882 40.3033 33.3148 40.53C33.3548 40.7567 33.2882 40.9967 33.1148 41.25C32.9548 41.49 32.7282 41.71 32.4348 41.91C32.1415 42.1233 31.8415 42.2767 31.5348 42.37C31.2282 42.4633 30.9615 42.4767 30.7348 42.41C30.5482 42.3567 30.3415 42.29 30.1148 42.21C29.9015 42.1433 29.6948 42.0233 29.4948 41.85C29.3348 41.6367 29.2082 41.4167 29.1148 41.19C29.0348 40.95 28.9815 40.6833 28.9548 40.39C28.9282 40.0833 28.9148 39.7367 28.9148 39.35C28.9148 39.19 28.9415 38.9567 28.9948 38.65C29.0615 38.33 29.1348 37.9967 29.2148 37.65C29.3082 37.3033 29.3882 36.9967 29.4548 36.73C29.5348 36.45 29.5815 36.27 29.5948 36.19C29.5548 36.11 29.4748 36.0633 29.3548 36.05C29.2482 36.0367 29.0415 36.05 28.7348 36.09C28.4415 36.13 27.9882 36.1967 27.3748 36.29C27.1348 36.3433 26.8548 36.41 26.5348 36.49C26.2148 36.57 25.9348 36.65 25.6948 36.73C25.4548 36.7967 25.3348 36.85 25.3348 36.89C25.2815 36.89 25.2348 36.9433 25.1948 37.05C25.1548 37.1567 25.1348 37.23 25.1348 37.27C25.1348 37.4567 25.1082 37.5967 25.0548 37.69C25.0282 37.77 24.9815 37.9167 24.9148 38.13C24.8615 38.3433 24.8015 38.5767 24.7348 38.83C24.6815 39.07 24.6348 39.2967 24.5948 39.51C24.5548 39.7233 24.5348 39.87 24.5348 39.95C24.4548 40.0433 24.4082 40.1633 24.3948 40.31C24.3815 40.4433 24.3748 40.5633 24.3748 40.67C24.3215 40.7767 24.2882 40.8767 24.2748 40.97C24.2615 41.05 24.2548 41.1167 24.2548 41.17C24.2548 41.1833 24.2548 41.21 24.2548 41.25C24.2548 41.29 24.2482 41.33 24.2348 41.37C24.2215 41.5033 24.2015 41.6767 24.1748 41.89C24.1615 42.1167 24.1548 42.3367 24.1548 42.55L24.0948 43.13C24.0815 43.3033 24.0615 43.5033 24.0348 43.73C24.0082 43.9567 23.9615 44.1033 23.8948 44.17ZM38.7155 41.35C38.3155 41.5767 37.8888 41.71 37.4355 41.75C36.9955 41.7767 36.5821 41.7167 36.1955 41.57C35.8088 41.41 35.4955 41.1767 35.2555 40.87C35.1221 40.6967 34.9955 40.4233 34.8755 40.05C34.7555 39.6633 34.7355 39.1433 34.8155 38.49C34.8955 37.8767 35.0821 37.2567 35.3755 36.63C35.6821 36.0033 36.0555 35.45 36.4955 34.97C36.9355 34.49 37.4155 34.1633 37.9355 33.99C38.1221 33.9233 38.3088 33.8767 38.4955 33.85C38.6955 33.81 38.9555 33.8033 39.2755 33.83C39.5821 33.87 39.8555 33.95 40.0955 34.07C40.3355 34.1767 40.5088 34.2967 40.6155 34.43C40.8288 34.6433 40.9688 34.85 41.0355 35.05C41.1021 35.25 41.1288 35.4433 41.1155 35.63C41.0488 36.0567 40.8555 36.5167 40.5355 37.01C40.2288 37.5033 39.7955 37.87 39.2355 38.11C39.0088 38.2033 38.7421 38.2633 38.4355 38.29C38.1288 38.3167 37.7088 38.2767 37.1755 38.17C36.8555 38.1033 36.6421 38.1367 36.5355 38.27C36.4421 38.4033 36.4021 38.6633 36.4155 39.05C36.4421 39.29 36.4955 39.5033 36.5755 39.69C36.6688 39.8633 36.8355 39.9833 37.0755 40.05C37.3821 40.1033 37.6021 40.11 37.7355 40.07C37.8688 40.0167 38.0355 39.9433 38.2355 39.85C38.3421 39.7833 38.4421 39.71 38.5355 39.63C38.6421 39.55 38.7421 39.47 38.8355 39.39C38.9421 39.31 39.0288 39.25 39.0955 39.21C39.1621 39.1567 39.2288 39.1233 39.2955 39.11C39.3621 39.0967 39.4288 39.09 39.4955 39.09C39.6421 39.1033 39.7821 39.1833 39.9155 39.33C40.0488 39.4767 40.1355 39.6167 40.1755 39.75C40.1755 39.8567 40.1088 40.01 39.9755 40.21C39.8421 40.3967 39.6621 40.5967 39.4355 40.81C39.2221 41.01 38.9821 41.19 38.7155 41.35ZM38.4555 36.89C38.5488 36.85 38.6821 36.7567 38.8555 36.61C39.0421 36.4633 39.2088 36.31 39.3555 36.15C39.5021 35.9767 39.5755 35.8433 39.5755 35.75C39.5755 35.6033 39.4755 35.4767 39.2755 35.37C39.0888 35.2633 38.8421 35.2433 38.5355 35.31C38.4288 35.3367 38.3021 35.41 38.1555 35.53C38.0088 35.65 37.8621 35.79 37.7155 35.95C37.5688 36.0967 37.4421 36.2433 37.3355 36.39C37.2288 36.5233 37.1555 36.63 37.1155 36.71C37.1688 36.7767 37.2755 36.83 37.4355 36.87C37.5955 36.91 37.7688 36.93 37.9555 36.93C38.1555 36.93 38.3221 36.9167 38.4555 36.89ZM41.9152 41.21C41.7952 41.1167 41.6618 40.9967 41.5152 40.85C41.3818 40.7033 41.3352 40.4967 41.3752 40.23C41.4152 39.8567 41.4685 39.53 41.5352 39.25C41.6018 38.9567 41.6818 38.6233 41.7752 38.25C41.8018 38.09 41.8685 37.8167 41.9752 37.43C42.0952 37.0433 42.2352 36.6233 42.3952 36.17C42.5552 35.7167 42.7218 35.29 42.8952 34.89C43.0685 34.4767 43.2218 34.17 43.3552 33.97C43.5018 33.8367 43.7152 33.77 43.9952 33.77C44.2885 33.77 44.4885 33.8233 44.5952 33.93C44.7418 34.05 44.7885 34.2633 44.7352 34.57C44.6818 34.8633 44.4952 35.3233 44.1752 35.95C44.1085 36.11 44.0218 36.2833 43.9152 36.47C43.8218 36.6433 43.7552 36.79 43.7152 36.91C43.6752 37.0167 43.6885 37.0633 43.7552 37.05C43.8352 36.9033 43.9818 36.7367 44.1952 36.55C44.4085 36.35 44.6352 36.1567 44.8752 35.97C45.1152 35.7833 45.3418 35.6167 45.5552 35.47C45.7685 35.3233 45.9152 35.23 45.9952 35.19C46.1018 35.1233 46.2218 35.07 46.3552 35.03C46.5018 34.9767 46.6018 34.9367 46.6552 34.91C46.9618 34.7633 47.2952 34.71 47.6552 34.75C48.0285 34.7767 48.2552 34.89 48.3352 35.09C48.3485 35.1967 48.3885 35.2767 48.4552 35.33C48.5352 35.3833 48.5752 35.41 48.5752 35.41C48.6285 35.41 48.6552 35.43 48.6552 35.47C48.6685 35.51 48.6752 35.53 48.6752 35.53C48.6752 35.6233 48.5818 35.7567 48.3952 35.93C48.2218 36.1033 48.0285 36.1967 47.8152 36.21C47.6418 36.2233 47.4885 36.2567 47.3552 36.31C47.2218 36.3633 47.0618 36.43 46.8752 36.51C46.3685 36.8033 45.9085 37.0633 45.4952 37.29C45.0952 37.5167 44.6818 37.8633 44.2552 38.33C44.1618 38.4367 44.0618 38.5367 43.9552 38.63C43.8485 38.7233 43.7418 38.8567 43.6352 39.03C43.5685 39.0967 43.5018 39.2433 43.4352 39.47C43.3685 39.6967 43.3085 39.9167 43.2552 40.13C43.2152 40.33 43.1952 40.45 43.1952 40.49C43.1952 40.49 43.1752 40.5567 43.1352 40.69C43.0952 40.81 43.0285 40.93 42.9352 41.05C42.7752 41.2633 42.6152 41.3967 42.4552 41.45C42.3085 41.5033 42.1285 41.4233 41.9152 41.21Z" fill="black"/>
</svg>
