<svg width="80" height="38" viewBox="0 0 80 38" fill="none" xmlns="http://www.w3.org/2000/svg">
<path opacity="0.6" d="M4.06 26.44C3.48667 26.0667 3.14667 25.6933 3.04 25.32C2.94667 24.9467 3.08 24.6467 3.44 24.42C3.52 24.3667 3.67333 24.36 3.9 24.4C4.14 24.44 4.32 24.52 4.44 24.64C4.70667 24.88 5.00667 25.0267 5.34 25.08C5.68667 25.1467 6.10667 25.1133 6.6 24.98C7.16 24.8067 7.58667 24.5933 7.88 24.34C8.18667 24.0733 8.52667 23.7133 8.9 23.26C9.18 22.9 9.37333 22.5467 9.48 22.2C9.6 21.8533 9.65333 21.54 9.64 21.26C9.64 20.9667 9.57333 20.7467 9.44 20.6C9.10667 20.1333 8.69333 19.8133 8.2 19.64C7.70667 19.4533 7.06 19.4667 6.26 19.68C6.16667 19.6933 6.02667 19.72 5.84 19.76C5.65333 19.8 5.48667 19.84 5.34 19.88C5.19333 19.9067 5.11333 19.92 5.1 19.92C5.00667 19.9467 4.93333 19.96 4.88 19.96C4.82667 19.96 4.76 20.0267 4.68 20.16C4.61333 20.28 4.50667 20.54 4.36 20.94C4.21333 21.3267 3.99333 21.9267 3.7 22.74C3.42 23.5533 3.18 24.1333 2.98 24.48C2.79333 24.8133 2.62667 24.9667 2.48 24.94C2.33333 24.9 2.16667 24.7533 1.98 24.5C1.87333 24.3133 1.75333 24.1067 1.62 23.88C1.5 23.6533 1.50667 23.42 1.64 23.18C1.70667 23.06 1.76 22.9533 1.8 22.86C1.84 22.7533 1.89333 22.5733 1.96 22.32C2.02667 22.12 2.15333 21.7733 2.34 21.28C2.54 20.7733 2.77333 20.1867 3.04 19.52C3.30667 18.84 3.58667 18.14 3.88 17.42C4.17333 16.7 4.45333 16.02 4.72 15.38C5 14.74 5.23333 14.2 5.42 13.76C5.60667 13.3467 5.72 13.0467 5.76 12.86C5.8 12.6733 5.78667 12.5733 5.72 12.56C5.72 12.4933 5.7 12.4333 5.66 12.38C5.62 12.3133 5.60667 12.2533 5.62 12.2C5.62 12.1467 5.73333 12.0733 5.96 11.98C6.2 11.8867 6.45333 11.8 6.72 11.72C6.98667 11.64 7.18 11.6133 7.3 11.64C7.36667 11.64 7.44667 11.64 7.54 11.64C7.63333 11.6267 7.68 11.5933 7.68 11.54C7.72 11.54 7.84667 11.5267 8.06 11.5C8.27333 11.4733 8.50667 11.4733 8.76 11.5C9.65333 11.58 10.3867 11.84 10.96 12.28C11.5333 12.7067 11.8133 13.3933 11.8 14.34C11.7867 14.5667 11.6933 14.86 11.52 15.22C11.3467 15.58 11.1267 15.94 10.86 16.3C10.6067 16.66 10.3333 16.9733 10.04 17.24C9.86667 17.3867 9.68 17.54 9.48 17.7C9.29333 17.8467 9.12667 17.9733 8.98 18.08C8.84667 18.1733 8.78 18.22 8.78 18.22C8.78 18.22 8.83333 18.24 8.94 18.28C9.04667 18.32 9.16 18.36 9.28 18.4C9.89333 18.6267 10.3733 18.9133 10.72 19.26C11.08 19.6067 11.3333 20.0867 11.48 20.7C11.5333 20.9 11.5333 21.1467 11.48 21.44C11.44 21.7333 11.38 22.0267 11.3 22.32C11.22 22.6 11.1333 22.84 11.04 23.04C10.9467 23.1333 10.8733 23.2333 10.82 23.34C10.7667 23.4333 10.74 23.48 10.74 23.48C10.74 23.5067 10.6867 23.6133 10.58 23.8C10.4733 23.9733 10.3467 24.1667 10.2 24.38C10.0533 24.5933 9.91333 24.78 9.78 24.94C9.64667 25.0467 9.45333 25.1933 9.2 25.38C8.96 25.58 8.69333 25.7733 8.4 25.96C8.12 26.1467 7.85333 26.2867 7.6 26.38C7.22667 26.54 6.80667 26.6467 6.34 26.7C5.88667 26.7667 5.45333 26.7733 5.04 26.72C4.62667 26.68 4.3 26.5867 4.06 26.44ZM5.5 18.14C5.5 18.14 5.60667 18.12 5.82 18.08C6.04667 18.0267 6.29333 17.9733 6.56 17.92C6.82667 17.8533 7.02667 17.7933 7.16 17.74C7.22667 17.7 7.32 17.6467 7.44 17.58C7.57333 17.5133 7.70667 17.4133 7.84 17.28C8.02667 17.1067 8.22667 16.9133 8.44 16.7C8.65333 16.4733 8.86 16.2333 9.06 15.98C9.27333 15.7267 9.45333 15.4533 9.6 15.16C9.90667 14.68 10.0733 14.3333 10.1 14.12C10.1267 13.9067 10.0533 13.7133 9.88 13.54C9.76 13.3933 9.59333 13.2867 9.38 13.22C9.16667 13.14 8.93333 13.1 8.68 13.1C8.44 13.0867 8.20667 13.1133 7.98 13.18C7.80667 13.2333 7.67333 13.3 7.58 13.38C7.48667 13.4467 7.44 13.5533 7.44 13.7C7.44 13.82 7.4 13.9467 7.32 14.08C7.25333 14.2 7.18667 14.2933 7.12 14.36C7.10667 14.4533 7.06 14.5467 6.98 14.64C6.91333 14.72 6.88 14.76 6.88 14.76C6.88 14.8133 6.79333 14.98 6.62 15.26C6.46 15.5267 6.28667 15.9133 6.1 16.42C5.86 16.9933 5.7 17.4067 5.62 17.66C5.54 17.9133 5.5 18.0733 5.5 18.14ZM16.3288 24.6C15.9288 24.8267 15.5021 24.96 15.0488 25C14.6088 25.0267 14.1954 24.9667 13.8088 24.82C13.4221 24.66 13.1088 24.4267 12.8688 24.12C12.7354 23.9467 12.6088 23.6733 12.4888 23.3C12.3688 22.9133 12.3488 22.3933 12.4288 21.74C12.5088 21.1267 12.6954 20.5067 12.9888 19.88C13.2954 19.2533 13.6688 18.7 14.1088 18.22C14.5488 17.74 15.0288 17.4133 15.5488 17.24C15.7354 17.1733 15.9221 17.1267 16.1088 17.1C16.3088 17.06 16.5688 17.0533 16.8888 17.08C17.1954 17.12 17.4688 17.2 17.7088 17.32C17.9488 17.4267 18.1221 17.5467 18.2288 17.68C18.4421 17.8933 18.5821 18.1 18.6488 18.3C18.7154 18.5 18.7421 18.6933 18.7288 18.88C18.6621 19.3067 18.4688 19.7667 18.1488 20.26C17.8421 20.7533 17.4088 21.12 16.8488 21.36C16.6221 21.4533 16.3554 21.5133 16.0488 21.54C15.7421 21.5667 15.3221 21.5267 14.7888 21.42C14.4688 21.3533 14.2554 21.3867 14.1488 21.52C14.0554 21.6533 14.0154 21.9133 14.0288 22.3C14.0554 22.54 14.1088 22.7533 14.1888 22.94C14.2821 23.1133 14.4488 23.2333 14.6888 23.3C14.9954 23.3533 15.2154 23.36 15.3488 23.32C15.4821 23.2667 15.6488 23.1933 15.8488 23.1C15.9554 23.0333 16.0554 22.96 16.1488 22.88C16.2554 22.8 16.3554 22.72 16.4488 22.64C16.5554 22.56 16.6421 22.5 16.7088 22.46C16.7754 22.4067 16.8421 22.3733 16.9088 22.36C16.9754 22.3467 17.0421 22.34 17.1088 22.34C17.2554 22.3533 17.3954 22.4333 17.5288 22.58C17.6621 22.7267 17.7488 22.8667 17.7888 23C17.7888 23.1067 17.7221 23.26 17.5888 23.46C17.4554 23.6467 17.2754 23.8467 17.0488 24.06C16.8354 24.26 16.5954 24.44 16.3288 24.6ZM16.0688 20.14C16.1621 20.1 16.2954 20.0067 16.4688 19.86C16.6554 19.7133 16.8221 19.56 16.9688 19.4C17.1154 19.2267 17.1888 19.0933 17.1888 19C17.1888 18.8533 17.0888 18.7267 16.8888 18.62C16.7021 18.5133 16.4554 18.4933 16.1488 18.56C16.0421 18.5867 15.9154 18.66 15.7688 18.78C15.6221 18.9 15.4754 19.04 15.3288 19.2C15.1821 19.3467 15.0554 19.4933 14.9488 19.64C14.8421 19.7733 14.7688 19.88 14.7288 19.96C14.7821 20.0267 14.8888 20.08 15.0488 20.12C15.2088 20.16 15.3821 20.18 15.5688 20.18C15.7688 20.18 15.9354 20.1667 16.0688 20.14ZM20.0684 27.42C19.9884 27.4733 19.8084 27.4067 19.5284 27.22C19.2484 27.0467 19.0151 26.8533 18.8284 26.64C18.7351 26.5333 18.6751 26.42 18.6484 26.3C18.6218 26.18 18.6284 25.9533 18.6684 25.62C18.7218 25.4733 18.7484 25.3333 18.7484 25.2C18.7618 25.0667 18.7684 24.9733 18.7684 24.92C18.7684 24.84 18.7884 24.6533 18.8284 24.36C18.8818 24.0667 18.9351 23.76 18.9884 23.44C19.0418 23.1067 19.0884 22.8533 19.1284 22.68C19.1284 22.6667 19.1351 22.62 19.1484 22.54C19.1751 22.46 19.1951 22.4 19.2084 22.36C19.2351 22.24 19.2684 22.0933 19.3084 21.92C19.3484 21.7467 19.3884 21.5133 19.4284 21.22C19.5351 20.8867 19.6218 20.56 19.6884 20.24C19.7684 19.9067 19.8084 19.68 19.8084 19.56C19.8084 19.32 19.9018 19.1467 20.0884 19.04C20.1018 18.9733 20.1418 18.8733 20.2084 18.74C20.2751 18.5933 20.3351 18.4733 20.3884 18.38C20.6551 17.62 20.8751 17.0133 21.0484 16.56C21.2218 16.1067 21.4018 15.7133 21.5884 15.38C21.6684 15.1533 21.7551 14.92 21.8484 14.68C21.9551 14.44 22.0618 14.2533 22.1684 14.12C22.2618 13.9333 22.4218 13.7067 22.6484 13.44C22.8884 13.16 23.1418 12.8933 23.4084 12.64C23.6751 12.3867 23.8884 12.2 24.0484 12.08C24.3418 11.9333 24.6151 11.8133 24.8684 11.72C25.1218 11.6267 25.3884 11.58 25.6684 11.58C25.9218 11.58 26.1418 11.64 26.3284 11.76C26.5284 11.8667 26.8218 12.0933 27.2084 12.44C27.3418 12.6133 27.4084 12.78 27.4084 12.94C27.4084 13.1 27.3751 13.2333 27.3084 13.34C27.2151 13.5533 27.0751 13.82 26.8884 14.14C26.7018 14.4467 26.5218 14.7267 26.3484 14.98C26.1751 15.22 26.0484 15.3467 25.9684 15.36C25.8084 15.4533 25.6418 15.48 25.4684 15.44C25.2951 15.4 25.2084 15.28 25.2084 15.08C25.2084 14.9867 25.2084 14.9 25.2084 14.82C25.2218 14.74 25.2284 14.7 25.2284 14.7C25.2684 14.5267 25.3151 14.3733 25.3684 14.24C25.4351 14.1067 25.4951 13.9933 25.5484 13.9C25.6551 13.7267 25.6818 13.56 25.6284 13.4C25.5884 13.24 25.4218 13.1733 25.1284 13.2C25.0884 13.2267 25.0084 13.2933 24.8884 13.4C24.7818 13.4933 24.6618 13.6067 24.5284 13.74C24.4084 13.86 24.3018 13.98 24.2084 14.1C24.1151 14.2067 24.0684 14.28 24.0684 14.32C24.0684 14.32 24.0284 14.3933 23.9484 14.54C23.8818 14.6733 23.7751 14.8267 23.6284 15C23.5351 15.1333 23.4551 15.26 23.3884 15.38C23.3218 15.5 23.2884 15.5933 23.2884 15.66C23.2884 15.7133 23.2818 15.76 23.2684 15.8C23.2551 15.84 23.2218 15.86 23.1684 15.86C23.1684 15.86 23.1418 15.9267 23.0884 16.06C23.0484 16.1933 22.9751 16.3533 22.8684 16.54C22.8151 16.6733 22.7551 16.8 22.6884 16.92C22.6351 17.0267 22.5818 17.1067 22.5284 17.16L22.5084 17.2C22.5084 17.2 22.4751 17.28 22.4084 17.44C22.3551 17.5867 22.2951 17.74 22.2284 17.9C22.1618 18.06 22.1284 18.1533 22.1284 18.18C22.1284 18.2333 22.2084 18.26 22.3684 18.26C22.5284 18.26 22.7218 18.24 22.9484 18.2C23.1751 18.1467 23.3951 18.0933 23.6084 18.04C23.7951 17.9867 23.9284 17.96 24.0084 17.96C24.0884 17.96 24.2151 17.9867 24.3884 18.04C24.4951 18.1067 24.5818 18.2267 24.6484 18.4C24.7151 18.56 24.7618 18.7267 24.7884 18.9C24.8284 19.06 24.8351 19.18 24.8084 19.26C24.7951 19.3133 24.6418 19.3867 24.3484 19.48C24.0684 19.5733 23.7884 19.6467 23.5084 19.7C23.2684 19.7533 22.9951 19.8133 22.6884 19.88C22.3951 19.9333 22.1351 19.9933 21.9084 20.06C21.6818 20.1133 21.5618 20.1667 21.5484 20.22C21.4951 20.22 21.4484 20.2533 21.4084 20.32C21.3818 20.3867 21.3684 20.4467 21.3684 20.5C21.3684 20.6733 21.3351 20.8133 21.2684 20.92C21.2418 21 21.1951 21.1667 21.1284 21.42C21.0751 21.66 21.0151 21.9267 20.9484 22.22C20.8951 22.5 20.8418 22.7667 20.7884 23.02C20.7484 23.26 20.7284 23.42 20.7284 23.5C20.6484 23.5933 20.6018 23.7133 20.5884 23.86C20.5751 23.9933 20.5684 24.1133 20.5684 24.22C20.5151 24.3267 20.4818 24.4267 20.4684 24.52C20.4551 24.6 20.4484 24.6667 20.4484 24.72C20.4484 24.7333 20.4484 24.76 20.4484 24.8C20.4484 24.84 20.4418 24.88 20.4284 24.92C20.4151 25.0533 20.3951 25.2267 20.3684 25.44C20.3551 25.6667 20.3484 25.8867 20.3484 26.1L20.2884 26.68C20.2751 26.8533 20.2484 27 20.2084 27.12C20.1818 27.2533 20.1351 27.3533 20.0684 27.42ZM27.0445 24.84C26.7645 24.8933 26.5512 24.88 26.4045 24.8C26.2712 24.7067 26.1312 24.5933 25.9845 24.46C25.7712 24.3533 25.5779 24.2067 25.4045 24.02C25.2312 23.82 25.0979 23.6133 25.0045 23.4C24.9112 23.1867 24.8712 23.02 24.8845 22.9C24.9245 22.4333 25.0312 21.9267 25.2045 21.38C25.3912 20.8333 25.6245 20.3 25.9045 19.78C26.1979 19.26 26.5245 18.8 26.8845 18.4C27.2579 17.9867 27.6579 17.6867 28.0845 17.5C28.3512 17.3933 28.6379 17.3533 28.9445 17.38C29.2512 17.4067 29.4579 17.5333 29.5645 17.76C29.7645 18.1467 29.7179 18.3933 29.4245 18.5C29.3845 18.5 29.3379 18.52 29.2845 18.56C29.2312 18.5867 29.2045 18.6267 29.2045 18.68C29.2579 18.7067 29.4045 18.7133 29.6445 18.7C29.8845 18.6733 30.1245 18.6333 30.3645 18.58C30.6179 18.5133 30.7845 18.4467 30.8645 18.38C30.9445 18.34 31.0045 18.32 31.0445 18.32C31.0845 18.32 31.1845 18.3333 31.3445 18.36C31.5712 18.4267 31.6845 18.5067 31.6845 18.6C31.6845 18.6533 31.7045 18.74 31.7445 18.86C31.7845 18.9667 31.8312 19.02 31.8845 19.02C31.9779 19.0333 31.9979 19.1267 31.9445 19.3C31.9045 19.4733 31.7512 19.6533 31.4845 19.84C31.2312 20 31.0712 20.1067 31.0045 20.16C30.9512 20.2 30.9445 20.2933 30.9845 20.44C31.0912 20.6933 31.0845 21 30.9645 21.36C30.8445 21.72 30.6445 22.0933 30.3645 22.48C30.0845 22.8667 29.7512 23.2333 29.3645 23.58C28.9912 23.9133 28.5979 24.2 28.1845 24.44C27.7845 24.6667 27.4045 24.8 27.0445 24.84ZM27.1045 23.16C27.1579 23.16 27.2512 23.1333 27.3845 23.08C27.5179 23.0133 27.6245 22.96 27.7045 22.92C27.7579 22.8667 27.8245 22.8067 27.9045 22.74C27.9979 22.66 28.0712 22.6133 28.1245 22.6C28.1779 22.6 28.2112 22.58 28.2245 22.54C28.2379 22.4867 28.2845 22.3867 28.3645 22.24C28.4445 22.08 28.6045 21.8467 28.8445 21.54C29.1112 21.2467 29.2845 21.0133 29.3645 20.84C29.4445 20.6533 29.4512 20.4533 29.3845 20.24C29.3712 20.1867 29.3312 20.1533 29.2645 20.14C29.2112 20.1267 29.1379 20.0933 29.0445 20.04C28.9112 20.04 28.8179 20.0733 28.7645 20.14C28.7245 20.1933 28.6312 20.16 28.4845 20.04L28.1645 19.64L27.8245 19.98C27.6112 20.1933 27.4179 20.46 27.2445 20.78C27.0845 21.1 26.9579 21.4267 26.8645 21.76C26.7712 22.0933 26.7112 22.3867 26.6845 22.64C26.6712 22.84 26.7045 22.9733 26.7845 23.04C26.8645 23.1067 26.9712 23.1467 27.1045 23.16ZM33.9906 24.58C33.9506 24.5933 33.864 24.5867 33.7306 24.56C33.6106 24.5333 33.484 24.5 33.3506 24.46C33.2306 24.42 33.1573 24.3867 33.1306 24.36C33.0773 24.3067 33.004 24.2133 32.9106 24.08C32.8173 23.9333 32.764 23.74 32.7506 23.5C32.7506 23.26 32.864 22.9733 33.0906 22.64C33.1573 22.5067 33.2373 22.3067 33.3306 22.04C33.424 21.7733 33.5173 21.4933 33.6106 21.2C33.7173 20.8933 33.8106 20.62 33.8906 20.38C33.984 20.14 34.0506 19.9733 34.0906 19.88C34.1173 19.6533 34.104 19.4933 34.0506 19.4C34.0106 19.2933 33.8973 19.2333 33.7106 19.22C33.5773 19.22 33.4706 19.1733 33.3906 19.08C33.324 18.9867 33.2906 18.82 33.2906 18.58C33.3173 18.3933 33.364 18.2333 33.4306 18.1C33.5106 17.9533 33.6173 17.8333 33.7506 17.74C33.884 17.6733 34.0506 17.6267 34.2506 17.6C34.464 17.5733 34.6706 17.5667 34.8706 17.58C35.0706 17.5933 35.2106 17.64 35.2906 17.72C35.384 17.7733 35.4573 17.8933 35.5106 18.08C35.5773 18.2533 35.6306 18.4333 35.6706 18.62C35.7106 18.8067 35.7373 18.9467 35.7506 19.04C35.884 18.9333 36.0306 18.7867 36.1906 18.6C36.364 18.4 36.5373 18.2133 36.7106 18.04C36.924 17.8933 37.1773 17.7467 37.4706 17.6C37.764 17.44 37.9773 17.36 38.1106 17.36C38.2573 17.36 38.4373 17.4333 38.6506 17.58C38.864 17.7133 38.9973 17.8333 39.0506 17.94C39.184 18.1667 39.2773 18.4067 39.3306 18.66C39.3973 18.9 39.3573 19.1133 39.2106 19.3C39.0773 19.4733 38.8906 19.6467 38.6506 19.82C38.4106 19.98 38.1106 20.0267 37.7506 19.96C37.6706 19.9333 37.584 19.8333 37.4906 19.66C37.4106 19.4867 37.364 19.36 37.3506 19.28C37.3506 19.24 37.2906 19.28 37.1706 19.4C37.064 19.5067 36.9306 19.64 36.7706 19.8C36.624 19.96 36.484 20.1067 36.3506 20.24C36.124 20.52 35.884 20.9 35.6306 21.38C35.3773 21.86 35.0773 22.44 34.7306 23.12C34.5706 23.4533 34.4373 23.7733 34.3306 24.08C34.224 24.3733 34.1106 24.54 33.9906 24.58ZM40.9377 24.82C40.4177 24.6067 40.0577 24.26 39.8577 23.78C39.6577 23.3 39.6043 22.66 39.6977 21.86C39.7243 21.4467 39.711 21.1733 39.6577 21.04C39.6043 20.8933 39.5043 20.7533 39.3577 20.62C39.3177 20.5667 39.2243 20.48 39.0777 20.36C38.931 20.2267 38.8643 20.1267 38.8777 20.06C38.8643 19.9667 38.8843 19.8533 38.9377 19.72C38.991 19.5733 39.0377 19.4933 39.0777 19.48C39.171 19.44 39.2643 19.3933 39.3577 19.34C39.4643 19.2867 39.5443 19.2733 39.5977 19.3C39.651 19.3 39.731 19.3333 39.8377 19.4C39.9577 19.4667 40.0177 19.5267 40.0177 19.58C40.071 19.6733 40.151 19.6333 40.2577 19.46C40.3777 19.2867 40.5043 19.0667 40.6377 18.8C40.771 18.5867 40.9377 18.3867 41.1377 18.2C41.3377 18.0133 41.5377 17.8467 41.7377 17.7C41.951 17.54 42.131 17.42 42.2777 17.34C42.3443 17.3133 42.471 17.2733 42.6577 17.22C42.8577 17.1667 43.0643 17.1267 43.2777 17.1C43.491 17.06 43.651 17.0467 43.7577 17.06C43.9977 17.0733 44.251 17.1733 44.5177 17.36C44.7843 17.5467 44.991 17.72 45.1377 17.88C45.311 18 45.4243 18.1867 45.4777 18.44C45.5443 18.68 45.571 18.9333 45.5577 19.2C45.5443 19.4667 45.491 19.6933 45.3977 19.88C45.3577 20.0133 45.2177 20.2 44.9777 20.44C44.7377 20.68 44.471 20.9133 44.1777 21.14C43.8977 21.3533 43.6577 21.5 43.4577 21.58C43.2843 21.62 43.0777 21.6533 42.8377 21.68C42.5977 21.6933 42.371 21.6933 42.1577 21.68C41.9577 21.6533 41.8177 21.62 41.7377 21.58C41.6443 21.5267 41.5643 21.5467 41.4977 21.64C41.4443 21.72 41.3977 21.9467 41.3577 22.32C41.3443 22.4667 41.3443 22.5933 41.3577 22.7C41.3843 22.8067 41.411 22.8867 41.4377 22.94C41.531 23.1 41.6243 23.22 41.7177 23.3C41.811 23.3667 41.9843 23.3867 42.2377 23.36C42.491 23.3333 42.7443 23.18 42.9977 22.9C43.2643 22.6067 43.5043 22.3733 43.7177 22.2C43.771 22.1067 43.8843 22.0467 44.0577 22.02C44.2443 21.98 44.4643 21.9933 44.7177 22.06C44.8643 22.1533 44.931 22.3 44.9177 22.5C44.9177 22.7 44.811 22.9933 44.5977 23.38C44.5577 23.4733 44.4443 23.6133 44.2577 23.8C44.0843 23.9733 43.891 24.1533 43.6777 24.34C43.4777 24.5133 43.311 24.64 43.1777 24.72C42.7777 24.9333 42.3843 25.0333 41.9977 25.02C41.611 25.0067 41.2577 24.94 40.9377 24.82ZM42.4177 20.32C42.6177 20.2667 42.7843 20.2133 42.9177 20.16C43.0643 20.1067 43.2043 20.02 43.3377 19.9C43.471 19.78 43.6243 19.6 43.7977 19.36C43.851 19.2133 43.8777 19.0867 43.8777 18.98C43.891 18.8733 43.8843 18.8067 43.8577 18.78C43.751 18.6733 43.631 18.64 43.4977 18.68C43.3777 18.7067 43.2443 18.7733 43.0977 18.88C43.0043 18.92 42.871 19.0067 42.6977 19.14C42.5377 19.26 42.3777 19.4 42.2177 19.56C42.071 19.7067 41.951 19.8467 41.8577 19.98C41.7777 20.1 41.7643 20.1733 41.8177 20.2C41.791 20.2533 41.8643 20.2867 42.0377 20.3C42.2243 20.3133 42.351 20.32 42.4177 20.32Z" fill="black"/>
<path opacity="0.6" d="M77.3823 24.5863C77.5286 24.054 77.2157 23.5033 76.6835 23.3567C76.1511 23.2104 75.6004 23.5232 75.4539 24.0555L73.9927 29.3765C67.2756 20.4411 58.9103 18.3687 55.1904 18.5534C54.6388 18.5809 54.2141 19.0502 54.2415 19.6017C54.269 20.1533 54.7383 20.578 55.2898 20.5506C58.2495 20.4037 65.6377 22.0672 71.8574 29.8854L66.7003 28.3582C66.1709 28.2014 65.6145 28.5031 65.4574 29.0324C65.3006 29.5618 65.6023 30.1183 66.1316 30.2753L74.1106 32.6386L75.0891 32.9284L75.3592 31.9455L77.3823 24.5863Z" fill="black"/>
</svg>
