<svg width="40" height="40" viewBox="0 0 40 40" fill="none" xmlns="http://www.w3.org/2000/svg">
<path d="M32.9683 8.55457C32.6983 8.41504 32.4355 8.26208 32.1808 8.09626C31.4402 7.60667 30.7612 7.02977 30.1584 6.37802C28.6501 4.65227 28.0868 2.90152 27.8793 1.67575H27.8877C27.7144 0.658301 27.786 0 27.7969 0H20.9272V26.5637C20.9272 26.9203 20.9272 27.2728 20.9122 27.6211C20.9122 27.6645 20.908 27.7044 20.9055 27.7511C20.9055 27.7703 20.9055 27.7903 20.9014 27.8103C20.9014 27.8153 20.9014 27.8203 20.9014 27.8253C20.829 28.7784 20.5234 29.6991 20.0117 30.5064C19.4999 31.3137 18.7976 31.9829 17.9665 32.455C17.1003 32.9478 16.1207 33.2063 15.1242 33.205C11.9235 33.205 9.32944 30.5951 9.32944 27.372C9.32944 24.1488 11.9235 21.5389 15.1242 21.5389C15.73 21.5384 16.3322 21.6337 16.9082 21.8214L16.9166 14.8268C15.1678 14.6009 13.3912 14.7398 11.6988 15.2349C10.0064 15.73 8.43502 16.5705 7.08372 17.7033C5.89967 18.7321 4.90423 19.9596 4.1422 21.3306C3.85222 21.8306 2.75811 23.8396 2.62561 27.1003C2.54228 28.9511 3.09809 30.8685 3.36308 31.6609V31.6776C3.52973 32.1442 4.17554 33.7366 5.22798 35.0791C6.07664 36.1559 7.0793 37.1019 8.20367 37.8864V37.8698L8.22033 37.8864C11.546 40.1463 15.2333 39.998 15.2333 39.998C15.8716 39.9722 18.0098 39.998 20.4381 38.8472C23.1313 37.5715 24.6645 35.6707 24.6645 35.6707C25.644 34.535 26.4229 33.2407 26.9677 31.8434C27.5894 30.2093 27.7969 28.2494 27.7969 27.4661V13.3735C27.8802 13.4235 28.9901 14.1576 28.9901 14.1576C28.9901 14.1576 30.5892 15.1826 33.0841 15.85C34.874 16.325 37.2855 16.425 37.2855 16.425V9.60535C36.4406 9.69702 34.7248 9.43036 32.9683 8.55457Z" fill="#ABA181"/>
</svg>
